<?xml version="1.0" encoding="UTF-8"?>
<!DOCTYPE svg PUBLIC "-//W3C//DTD SVG 1.1//EN" "http://www.w3.org/Graphics/SVG/1.1/DTD/svg11.dtd">
<!-- Creator: CorelDRAW 2018 -->
<svg xmlns="http://www.w3.org/2000/svg" xml:space="preserve" width="8.6902mm" height="8.4256mm" version="1.1" style="shape-rendering:geometricPrecision; text-rendering:geometricPrecision; image-rendering:optimizeQuality; fill-rule:evenodd; clip-rule:evenodd"
viewBox="0 0 44.68 43.32"
 xmlns:xlink="http://www.w3.org/1999/xlink">
 <defs>
  <style type="text/css">
   <![CDATA[
    .fil0 {fill:white}
   ]]>
  </style>
 </defs>
 <g id="Layer_x0020_1">
  <metadata id="CorelCorpID_0Corel-Layer"/>
  <path class="fil0" d="M3.93 0.86c0,-0.24 0.1,-0.46 0.26,-0.61 0.16,-0.15 0.38,-0.25 0.62,-0.25l13.9 0 0.01 0 0.01 0 0.01 0 0.01 0 25.05 0c0.24,0 0.46,0.1 0.62,0.25 0.16,0.16 0.26,0.37 0.26,0.61l0 8.24 0 0.01 0 0.01 0 0.01 0 0.01 0 8.37 0 0.01 0 0.01 0 0.01 0 0.01 0 20.88c0,0.24 -0.1,0.46 -0.26,0.61 -0.16,0.15 -0.38,0.25 -0.62,0.25 -0.24,0 -0.46,-0.1 -0.62,-0.25 -0.16,-0.16 -0.26,-0.37 -0.26,-0.61l0 -10 -4.58 4.58c-0.17,0.17 -0.4,0.26 -0.62,0.26 -0.22,0 -0.45,-0.09 -0.62,-0.26 -0.17,-0.17 -0.26,-0.4 -0.26,-0.62 0,-0.22 0.09,-0.45 0.26,-0.62l5.82 -5.82 0 -6.29 -12.11 12.1c-0.17,0.17 -0.4,0.26 -0.62,0.26 -0.22,0 -0.45,-0.09 -0.62,-0.26l-0.02 -0.03c-0.15,-0.17 -0.23,-0.38 -0.23,-0.59 0,-0.22 0.09,-0.45 0.26,-0.62l13.35 -13.34 0 -5.94 -21.06 21.06c-0.17,0.17 -0.4,0.26 -0.62,0.26 -0.22,0 -0.45,-0.09 -0.62,-0.26 -0.17,-0.17 -0.26,-0.4 -0.26,-0.62 0,-0.22 0.09,-0.45 0.26,-0.62l22.3 -22.3 0 -5.94 -29.66 29.66c-0.17,0.17 -0.4,0.26 -0.62,0.26 -0.22,0 -0.45,-0.09 -0.62,-0.26l-0.02 -0.03c-0.16,-0.17 -0.23,-0.38 -0.23,-0.59 0,-0.22 0.09,-0.45 0.26,-0.62l29.52 -29.52 -5.58 0 -22.35 21.99c-0.17,0.17 -0.4,0.25 -0.62,0.25 -0.22,-0 -0.45,-0.09 -0.62,-0.26l-0.03 -0.03c-0.15,-0.17 -0.23,-0.38 -0.23,-0.59 0,-0.22 0.09,-0.45 0.26,-0.62l21.08 -20.74 -6.27 0 -13.77 13.95c-0.17,0.16 -0.38,0.23 -0.59,0.24 -0.22,0 -0.45,-0.08 -0.62,-0.25l-0.02 -0.03c-0.16,-0.17 -0.23,-0.38 -0.24,-0.59 -0,-0.22 0.08,-0.45 0.25,-0.62l12.53 -12.69 -5.6 0 -6.23 6.23c-0.17,0.17 -0.4,0.26 -0.62,0.26 -0.22,0 -0.45,-0.09 -0.62,-0.26 -0.17,-0.17 -0.26,-0.4 -0.26,-0.62 0,-0.22 0.09,-0.45 0.26,-0.62l4.99 -4.99 -11.84 0c-0.24,0 -0.46,-0.1 -0.62,-0.25 -0.16,-0.16 -0.26,-0.37 -0.26,-0.61zm-0.51 38.87l0 -1.59 0 0 0 -31.03 -1.92 1.92c-0.17,0.17 -0.4,0.26 -0.62,0.26 -0.22,0 -0.45,-0.09 -0.62,-0.26 -0.17,-0.17 -0.26,-0.4 -0.26,-0.62 0,-0.22 0.09,-0.45 0.26,-0.62l3.42 -3.42c0.17,-0.17 0.4,-0.26 0.62,-0.26 0.22,0 0.45,0.09 0.62,0.26l3.42 3.42c0.17,0.17 0.26,0.4 0.26,0.62 0,0.22 -0.09,0.45 -0.26,0.62 -0.17,0.17 -0.4,0.26 -0.62,0.26 -0.22,0 -0.45,-0.09 -0.62,-0.26l-1.92 -1.92 0 31.03 30.66 0 -1.94 -1.93c-0.17,-0.17 -0.26,-0.39 -0.26,-0.62 0,-0.22 0.09,-0.45 0.26,-0.62l0 -0c0.17,-0.17 0.4,-0.26 0.62,-0.26 0.22,0 0.45,0.09 0.62,0.26l3.44 3.42c0.17,0.17 0.26,0.4 0.26,0.62 0,0.22 -0.09,0.45 -0.26,0.62l-3.44 3.42c-0.17,0.17 -0.4,0.26 -0.62,0.26 -0.22,0 -0.45,-0.09 -0.62,-0.26 -0.17,-0.17 -0.26,-0.4 -0.26,-0.62 0,-0.22 0.09,-0.45 0.26,-0.62l1.93 -1.92 -32.42 0 0 -0.17z"/>
 </g>
</svg>
