<?xml version="1.0" encoding="UTF-8"?>
<!DOCTYPE svg PUBLIC "-//W3C//DTD SVG 1.1//EN" "http://www.w3.org/Graphics/SVG/1.1/DTD/svg11.dtd">
<!-- Creator: CorelDRAW 2018 -->
<svg xmlns="http://www.w3.org/2000/svg" xml:space="preserve" width="7.673mm" height="7.673mm" version="1.1" style="shape-rendering:geometricPrecision; text-rendering:geometricPrecision; image-rendering:optimizeQuality; fill-rule:evenodd; clip-rule:evenodd"
viewBox="0 0 43.98 43.98"
 xmlns:xlink="http://www.w3.org/1999/xlink">
 <defs>
  <style type="text/css">
   <![CDATA[
    .fil0 {fill:#E3B873;fill-rule:nonzero}
   ]]>
  </style>
 </defs>
 <g id="Layer_x0020_1">
  <metadata id="CorelCorpID_0Corel-Layer"/>
  <g id="_716768464">
   <path class="fil0" d="M41.7 21.99c0,-5.44 -2.21,-10.37 -5.77,-13.94 -3.57,-3.57 -8.5,-5.77 -13.94,-5.77 -5.44,0 -10.37,2.21 -13.94,5.77 -3.57,3.57 -5.77,8.5 -5.77,13.94 0,5.44 2.21,10.37 5.77,13.94 3.57,3.57 8.5,5.77 13.94,5.77 5.44,0 10.37,-2.21 13.94,-5.77 3.57,-3.57 5.77,-8.5 5.77,-13.94zm-4.17 -15.55c3.98,3.98 6.44,9.48 6.44,15.55 0,6.07 -2.46,11.57 -6.44,15.55 -3.98,3.98 -9.48,6.44 -15.55,6.44 -6.07,0 -11.57,-2.46 -15.55,-6.44 -3.98,-3.98 -6.44,-9.48 -6.44,-15.55 0,-6.07 2.46,-11.57 6.44,-15.55 3.98,-3.98 9.48,-6.44 15.55,-6.44 6.07,0 11.57,2.46 15.55,6.44z"/>
   <polygon class="fil0" points="29.19,20.71 21.85,28 14.51,20.71 16.11,19.1 21.85,24.8 27.59,19.1 "/>
  </g>
 </g>
</svg>
