<?xml version="1.0" encoding="UTF-8"?>
<!DOCTYPE svg PUBLIC "-//W3C//DTD SVG 1.1//EN" "http://www.w3.org/Graphics/SVG/1.1/DTD/svg11.dtd">
<!-- Creator: CorelDRAW 2018 -->
<svg xmlns="http://www.w3.org/2000/svg" xml:space="preserve" width="8.6732mm" height="8.2933mm" version="1.1" style="shape-rendering:geometricPrecision; text-rendering:geometricPrecision; image-rendering:optimizeQuality; fill-rule:evenodd; clip-rule:evenodd"
viewBox="0 0 39.07 37.36"
 xmlns:xlink="http://www.w3.org/1999/xlink">
 <defs>
  <style type="text/css">
   <![CDATA[
    .fil0 {fill:white}
   ]]>
  </style>
 </defs>
 <g id="Layer_x0020_1">
  <metadata id="CorelCorpID_0Corel-Layer"/>
  <path class="fil0" d="M28.9 2.62c-0.31,-1.49 -1.67,-2.62 -3.3,-2.62 -0.37,0 -0.67,0.29 -0.67,0.66 0,0.36 0.3,0.66 0.67,0.66 1.11,0 2.02,0.88 2.02,1.97 0,1.08 -0.91,1.97 -2.02,1.97 -0.37,0 -0.67,0.29 -0.67,0.66 0,0.36 0.3,0.66 0.67,0.66 1.63,0 2.99,-1.13 3.3,-2.62l8.83 0 0 5.9 -36.38 0 0 -5.9 9.43 0 2.02 0c0.37,0 0.67,-0.29 0.67,-0.66 0,-0.36 -0.3,-0.66 -0.67,-0.66l-1.22 0c0.28,-0.76 1.02,-1.31 1.9,-1.31 1.11,0 2.02,0.88 2.02,1.97 0,1.08 -0.91,1.97 -2.02,1.97 -0.37,0 -0.67,0.29 -0.67,0.66 0,0.36 0.3,0.66 0.67,0.66 1.86,0 3.37,-1.47 3.37,-3.28 0,-1.81 -1.51,-3.28 -3.37,-3.28 -1.63,0 -2.99,1.13 -3.3,2.62l-10.17 0 0 8.52 0 26.22 39.07 0 0 -26.22 0 -8.52 -10.17 0zm-6 28.18l-16.84 0c-0.37,0 -0.67,0.29 -0.67,0.66 0,0.36 0.3,0.66 0.67,0.66l16.84 0c0.37,0 0.67,-0.29 0.67,-0.66 0,-0.36 -0.3,-0.66 -0.67,-0.66zm10.1 -9.18c0.18,0 0.35,-0.07 0.48,-0.19 0.13,-0.12 0.2,-0.3 0.2,-0.47 0,-0.17 -0.07,-0.34 -0.2,-0.47 -0.26,-0.24 -0.71,-0.24 -0.96,0 -0.12,0.12 -0.2,0.29 -0.2,0.47 0,0.17 0.07,0.34 0.2,0.47 0.13,0.12 0.3,0.19 0.48,0.19zm-26.95 5.24c0.18,0 0.35,-0.07 0.48,-0.19 0.12,-0.12 0.2,-0.3 0.2,-0.47 0,-0.17 -0.07,-0.34 -0.2,-0.46 -0.25,-0.25 -0.71,-0.25 -0.96,-0.01 -0.12,0.12 -0.2,0.29 -0.2,0.47 0,0.17 0.07,0.34 0.2,0.47 0.13,0.12 0.3,0.19 0.48,0.19zm2.69 -0.66c0,0.36 0.3,0.66 0.67,0.66l10.1 0c0.37,0 0.67,-0.29 0.67,-0.66 0,-0.36 -0.3,-0.66 -0.67,-0.66l-10.1 0c-0.37,0 -0.67,0.29 -0.67,0.66zm7.89 -4.78c0.12,-0.12 0.2,-0.3 0.2,-0.47 0,-0.17 -0.07,-0.34 -0.2,-0.47 -0.25,-0.24 -0.71,-0.24 -0.96,0 -0.12,0.12 -0.2,0.29 -0.2,0.47 0,0.17 0.07,0.34 0.2,0.47 0.13,0.12 0.3,0.19 0.48,0.19 0.18,0 0.35,-0.07 0.48,-0.19zm2.22 -0.47c0,0.36 0.3,0.66 0.67,0.66l10.1 0c0.37,0 0.67,-0.29 0.67,-0.66 0,-0.36 -0.3,-0.66 -0.67,-0.66l-10.1 0c-0.37,0 -0.67,0.29 -0.67,0.66zm14.15 9.83l-6.74 0c-0.37,0 -0.67,0.29 -0.67,0.66 0,0.36 0.3,0.66 0.67,0.66l6.74 0c0.37,0 0.67,-0.29 0.67,-0.66 0,-0.36 -0.3,-0.66 -0.67,-0.66zm-26.95 -9.18l6.74 0c0.37,0 0.67,-0.29 0.67,-0.66 0,-0.36 -0.3,-0.66 -0.67,-0.66l-6.74 0c-0.37,0 -0.67,0.29 -0.67,0.66 0,0.36 0.3,0.66 0.67,0.66zm26.95 3.93l-10.1 0c-0.37,0 -0.67,0.29 -0.67,0.66 0,0.36 0.3,0.66 0.67,0.66l10.1 0c0.37,0 0.67,-0.29 0.67,-0.66 0,-0.36 -0.3,-0.66 -0.67,-0.66zm-26.95 -9.18l14.82 0c0.37,0 0.67,-0.29 0.67,-0.66 0,-0.36 -0.3,-0.66 -0.67,-0.66l-14.82 0c-0.37,0 -0.67,0.29 -0.67,0.66 0,0.36 0.3,0.66 0.67,0.66zm15.49 -15.07c1.11,0 2.02,0.88 2.02,1.97 0,1.08 -0.91,1.97 -2.02,1.97 -0.37,0 -0.67,0.29 -0.67,0.66 0,0.36 0.3,0.66 0.67,0.66 1.86,0 3.37,-1.47 3.37,-3.28 0,-1.81 -1.51,-3.28 -3.37,-3.28 -0.37,0 -0.67,0.29 -0.67,0.66 0,0.36 0.3,0.66 0.67,0.66zm-4.04 0c1.11,0 2.02,0.88 2.02,1.97 0,1.08 -0.91,1.97 -2.02,1.97 -0.37,0 -0.67,0.29 -0.67,0.66 0,0.36 0.3,0.66 0.67,0.66 1.86,0 3.37,-1.47 3.37,-3.28 0,-1.81 -1.51,-3.28 -3.37,-3.28 -0.37,0 -0.67,0.29 -0.67,0.66 0,0.36 0.3,0.66 0.67,0.66zm20.21 34.74l-36.38 0 0 -24.91 36.38 0 0 24.91z"/>
 </g>
</svg>
