<?xml version="1.0" encoding="UTF-8"?>
<!DOCTYPE svg PUBLIC "-//W3C//DTD SVG 1.1//EN" "http://www.w3.org/Graphics/SVG/1.1/DTD/svg11.dtd">
<!-- Creator: CorelDRAW 2018 -->
<svg xmlns="http://www.w3.org/2000/svg" xml:space="preserve" width="30.1624mm" height="7.4084mm" version="1.1" style="shape-rendering:geometricPrecision; text-rendering:geometricPrecision; image-rendering:optimizeQuality; fill-rule:evenodd; clip-rule:evenodd"
viewBox="0 0 13518.94 3320.48"
 xmlns:xlink="http://www.w3.org/1999/xlink">
 <defs>
  <style type="text/css">
   <![CDATA[
    .fil0 {fill:#E3B873}
   ]]>
  </style>
 </defs>
 <g id="Layer_x0020_1">
  <metadata id="CorelCorpID_0Corel-Layer"/>
  <path class="fil0" d="M91.52 1543.98l3611.77 0c50.6,0 91.57,40.97 91.57,91.52l-0.09 0c0.09,50.56 -40.88,91.52 -91.43,91.52l-3611.81 0c-50.51,0 -91.48,-40.97 -91.48,-91.52l-0.04 0c0.04,-50.56 41.01,-91.52 91.57,-91.52l-0.04 0zm8666.18 -479.85l-2860.35 -1059.74c-36.57,-13.49 -77.23,5.2 -90.72,41.82 0,0.04 0,0.04 -0.04,0.09l-316.66 861.9c-13.45,36.62 5.29,77.23 41.91,90.72l0.09 0 331.54 121.73 -73.06 199c-13.4,36.66 5.33,77.18 41.95,90.67l663.25 243.46 -48.76 132.71c-44.28,118.82 -2.96,252.61 100.71,325.67l0 360.54 -950.6 0c-46.03,-105.19 -140.15,-181.57 -252.61,-204.87l0 -148.36c0,-39.04 -31.64,-70.64 -70.68,-70.64l-284.83 0c-38.99,0 -70.64,31.6 -70.64,70.64l0 1130.33c0,39.08 31.64,70.68 70.64,70.68l284.83 0c39.04,0 70.68,-31.6 70.68,-70.68l0 -148.31c112.45,-23.35 206.58,-99.68 252.61,-204.92l950.6 0 0 70.68c0,117.03 94.88,211.96 211.87,211.96 117.07,0 211.96,-94.93 211.96,-211.96l0 -782.66c64.23,-31.82 113.84,-87.09 138.54,-154.36l48.76 -132.67 596.87 218.99c7.8,2.87 16,4.35 24.29,4.35 29.63,0 56.16,-18.47 66.38,-46.3l26.49 -72.12c229.88,43.25 451.3,-108.06 494.5,-337.9 16,-84.98 5.6,-172.74 -29.72,-251.62l428.26 -219.89c34.74,-17.79 48.45,-60.37 30.66,-95.11 -8.07,-15.73 -21.74,-27.92 -38.37,-34.06l-0.36 0.22zm-2068.87 1112.4l58.45 21.2c26.62,9.55 54.55,15.06 82.78,16.27l0 258.7 -141.23 0 0 -296.17zm-1485.75 1002.68l-143.56 0 0 -989.1 143.56 0 0 989.1zm282.55 -423.91c-0.13,89.78 -56.7,169.82 -141.27,199.85l0 -541.03c84.58,30.07 141.14,110.08 141.27,199.9l0 141.27zm143.52 -141.27l1200.92 0 0 141.27 -1200.92 0 0 -141.27zm1130.28 423.87c-38.99,0 -70.59,-31.64 -70.59,-70.64l0 -70.68 141.23 0 0 70.68c0,38.99 -31.6,70.64 -70.64,70.64zm266.64 -1189l-48.72 132.67c-26.94,73.19 -108.11,110.71 -181.3,83.86l-132.85 -48.68c-73.24,-26.89 -110.84,-108.06 -83.95,-181.34 0,0 0,0 0,-0.04l48.76 -132.58 358.07 131.46 39.98 14.66zm711.93 110.93l-1790.62 -657.56 48.76 -132.67 1061.04 389.62c25.1,9.14 53.29,3.45 72.79,-14.84l198.29 -186.63 555.86 204.16 -146.11 397.92zm477.65 -276.14c-44.78,120.7 -165.16,196.13 -293.26,183.72l109.14 -297.38 178.3 -91.84c27.92,65.3 29.98,138.76 5.83,205.5zm-238.45 -244.27c-3.76,0.31 -7.44,0.99 -11.12,1.97l-629.86 -231.32c-25.1,-9.19 -53.29,-3.5 -72.79,14.84l-198.51 186.68 -1417.99 -520.72 267.85 -729.32 2643.29 979.33 -580.87 298.55zm1838.45 104.57l3611.77 0c50.51,0 91.48,40.97 91.48,91.52l0.04 0c-0.04,50.56 -41.01,91.52 -91.57,91.52l-3611.73 0c-50.6,0 -91.57,-40.97 -91.57,-91.52l0.04 0c-0.04,-50.56 40.92,-91.52 91.48,-91.52l0.04 0z"/>
 </g>
</svg>
