<?xml version="1.0" encoding="UTF-8"?>
<!DOCTYPE svg PUBLIC "-//W3C//DTD SVG 1.1//EN" "http://www.w3.org/Graphics/SVG/1.1/DTD/svg11.dtd">
<!-- Creator: CorelDRAW 2018 -->
<svg xmlns="http://www.w3.org/2000/svg" xml:space="preserve" width="10.8883mm" height="11.6415mm" version="1.1" style="shape-rendering:geometricPrecision; text-rendering:geometricPrecision; image-rendering:optimizeQuality; fill-rule:evenodd; clip-rule:evenodd"
viewBox="0 0 418.28 447.22"
 xmlns:xlink="http://www.w3.org/1999/xlink">
 <defs>
  <style type="text/css">
   <![CDATA[
    .fil0 {fill:white}
   ]]>
  </style>
 </defs>
 <g id="Layer_x0020_1">
  <metadata id="CorelCorpID_0Corel-Layer"/>
  <path class="fil0" d="M286.37 34.81l-0.28 1.54c14.19,5.62 27.74,12.79 40.41,21.39 13.74,9.33 26.43,20.34 37.76,32.86 17.41,19.24 30.91,41.33 40.06,65.1 9.15,23.78 13.96,49.23 13.96,75.15 0,1.81 -0.74,3.45 -1.92,4.63 -1.18,1.18 -2.83,1.92 -4.63,1.92 -1.8,0 -3.45,-0.74 -4.63,-1.92 -1.18,-1.18 -1.92,-2.83 -1.92,-4.63 0,-48.95 -17.84,-93.94 -47.67,-128.42 -29.93,-34.6 -71.95,-58.67 -120.11,-65.59l-0.01 13.13c0,1.81 -0.74,3.45 -1.92,4.63 -1.18,1.18 -2.83,1.92 -4.63,1.92l-43.41 0c-1.8,0 -3.45,-0.74 -4.63,-1.92 -1.18,-1.18 -1.92,-2.83 -1.92,-4.63l0 -13.12c-48.17,6.91 -90.19,30.97 -120.12,65.58 -29.82,34.48 -47.67,79.47 -47.67,128.42 0,1.81 -0.74,3.45 -1.92,4.63 -1.18,1.18 -2.83,1.92 -4.63,1.92 -1.8,0 -3.45,-0.74 -4.63,-1.92 -1.18,-1.18 -1.92,-2.83 -1.92,-4.63 0,-25.93 4.81,-51.37 13.96,-75.15 9.15,-23.77 22.65,-45.85 40.06,-65.1 11.33,-12.52 24.03,-23.53 37.76,-32.86 12.67,-8.61 26.22,-15.77 40.41,-21.39l-0.28 -1.54 -76.45 0c-1.41,4.25 -4.14,7.91 -7.67,10.47 -3.47,2.51 -7.73,4 -12.3,4 -5.77,0 -11.04,-2.36 -14.84,-6.18 -3.81,-3.79 -6.18,-9.05 -6.18,-14.84 0,-5.77 2.37,-11.03 6.17,-14.84 3.8,-3.82 9.07,-6.18 14.86,-6.18 4.58,0 8.84,1.49 12.3,4 3.54,2.56 6.26,6.22 7.66,10.48l125.43 0 0 -15.16c0,-1.81 0.74,-3.45 1.92,-4.63 1.18,-1.18 2.83,-1.92 4.63,-1.92l43.41 0c1.8,0 3.45,0.74 4.63,1.92 1.18,1.18 1.92,2.82 1.92,4.63l0 15.15 125.42 0c1.41,-4.25 4.13,-7.91 7.66,-10.47 3.47,-2.51 7.73,-4 12.3,-4 5.77,0 11.03,2.37 14.84,6.17 3.82,3.8 6.18,9.06 6.18,14.85 0,5.77 -2.36,11.04 -6.18,14.84 -3.79,3.81 -9.05,6.18 -14.84,6.18 -4.58,0 -8.83,-1.48 -12.3,-4 -3.53,-2.56 -6.25,-6.22 -7.66,-10.47l-76.46 0zm-57.04 40.9c-1.16,-2.07 -3.34,-3.36 -5.72,-3.36l-28.94 0c-2.37,0 -4.56,1.28 -5.72,3.36l-86.82 155.56c-0.55,0.98 -0.83,2.07 -0.83,3.19l0 7.24c0,1.24 0.35,2.45 1.01,3.5l37.07 58.68 -24.29 0c-3.61,0 -6.55,2.93 -6.55,6.55 0,3.61 2.93,6.55 6.55,6.55l0.69 0 0 22.39c0,3.62 2.93,6.55 6.55,6.55l7.91 0 0 22.39c0,3.61 2.93,6.55 6.55,6.55l7.92 0 0 22.37 0 0.03 0 0.03 0 43.38c0,3.62 2.93,6.55 6.55,6.55l115.76 0c3.61,0 6.55,-2.93 6.55,-6.55l0 -65.8 7.92 0c3.61,0 6.55,-2.93 6.55,-6.55l0 -22.39 7.92 0c3.61,0 6.55,-2.93 6.55,-6.55l0 -22.39 0.68 0c3.62,0 6.55,-2.93 6.55,-6.55 0,-3.62 -2.93,-6.55 -6.55,-6.55l-7.22 0c-0.01,0 -0.01,0 -0.02,0 -0.01,0 -0.01,0 -0.02,0l-17.04 0 37.06 -58.68c0.66,-1.05 1.01,-2.26 1.01,-3.5l0 -7.24c0,-1.12 -0.29,-2.22 -0.83,-3.19l-86.82 -155.56zm-20.18 139.98c4.36,0 7.92,3.55 7.92,7.92 0,4.36 -3.55,7.91 -7.92,7.91 -4.37,0 -7.92,-3.55 -7.92,-7.91 0,-4.37 3.55,-7.92 7.92,-7.92zm65.79 146.07l-71.87 0c-3.62,0 -6.55,2.93 -6.55,6.55 0,3.62 2.93,6.55 6.55,6.55l57.4 0 0 15.84 -7.93 0c-3.61,0 -6.55,2.93 -6.55,6.55 0,3.62 2.93,6.55 6.55,6.55l7.92 0 0 30.31 -102.66 0 0 -30.31 7.92 0c3.62,0 6.55,-2.93 6.55,-6.55 0,-3.62 -2.93,-6.55 -6.55,-6.55l-7.92 0 0 -15.84 17.26 0c3.62,0 6.55,-2.93 6.55,-6.55 0,-3.61 -2.93,-6.55 -6.55,-6.55l-31.74 0 0 -15.84 131.6 0 0 15.84zm14.47 -28.94l-160.54 0 0 -15.84 138.13 0 0.01 0 0.02 0 22.38 0 0 15.84zm14.47 -93.02l-13.05 20.67 -16.57 0c-3.62,0 -6.55,2.93 -6.55,6.55 0,3.62 2.93,6.55 6.55,6.55l8.3 0 -19.15 30.31 -47.72 0 0 -15.16c0,-3.61 -2.93,-6.55 -6.55,-6.55 -3.62,0 -6.55,2.93 -6.55,6.55l0 15.16 -47.72 0 -19.14 -30.31 8.3 0c3.62,0 6.55,-2.93 6.55,-6.55 0,-3.62 -2.93,-6.55 -6.55,-6.55l-16.57 0 -13.05 -20.67 0 -3.64 84.12 -150.71 4.07 0 0 118.19c-8.39,2.76 -14.47,10.67 -14.47,19.97 0,11.59 9.43,21.02 21.02,21.02 11.59,0 21.02,-9.43 21.02,-21.02 0,-9.3 -6.08,-17.21 -14.47,-19.97l0 -118.19 4.07 0 84.12 150.71 0 3.64zm-109.9 -196.39l30.31 0 0 -30.31 -30.31 0 0 30.31zm196.72 -15.15c0,-2.19 -0.88,-4.18 -2.3,-5.59 -1.44,-1.44 -3.42,-2.32 -5.62,-2.32 -2.2,0 -4.18,0.89 -5.61,2.31 -1.42,1.44 -2.31,3.42 -2.31,5.6 0,2.19 0.89,4.17 2.32,5.6 1.43,1.43 3.42,2.32 5.6,2.32 2.2,0 4.18,-0.88 5.6,-2.3 1.43,-1.45 2.32,-3.43 2.32,-5.62zm-363.13 0c0,2.18 0.89,4.17 2.32,5.6 1.43,1.43 3.42,2.32 5.6,2.32 2.2,0 4.18,-0.88 5.6,-2.3 1.43,-1.45 2.32,-3.43 2.32,-5.62 0,-2.2 -0.88,-4.18 -2.3,-5.6 -1.44,-1.44 -3.42,-2.32 -5.62,-2.32 -2.18,0 -4.17,0.89 -5.6,2.32 -1.44,1.42 -2.32,3.4 -2.32,5.6z"/>
 </g>
</svg>
