<?xml version="1.0" encoding="UTF-8"?>
<!DOCTYPE svg PUBLIC "-//W3C//DTD SVG 1.1//EN" "http://www.w3.org/Graphics/SVG/1.1/DTD/svg11.dtd">
<!-- Creator: CorelDRAW 2018 -->
<svg xmlns="http://www.w3.org/2000/svg" xml:space="preserve" width="168.263mm" height="168.306mm" version="1.1" style="shape-rendering:geometricPrecision; text-rendering:geometricPrecision; image-rendering:optimizeQuality; fill-rule:evenodd; clip-rule:evenodd"
viewBox="0 0 22724.95 22730.72"
 xmlns:xlink="http://www.w3.org/1999/xlink">
 <defs>
  <style type="text/css">
   <![CDATA[
    .fil0 {fill:black;fill-rule:nonzero}
   ]]>
  </style>
 </defs>
 <g id="Layer_x0020_1">
  <metadata id="CorelCorpID_0Corel-Layer"/>
  <path class="fil0" d="M3760.49 19667.09c21.73,19.88 23.23,53.66 3.35,75.39 -19.88,21.73 -53.66,23.23 -75.39,3.35 -1070.52,-980.68 -1933.08,-2147.47 -2554,-3430.9 -620.99,-1283.61 -1000.52,-2684.07 -1104.96,-4131.88 -104.45,-1447.88 70.09,-2888.27 500.38,-4247.58 430.25,-1359.23 1116.37,-2637.71 2035.03,-3761.84 918.58,-1124.06 2034.86,-2051.05 3281.35,-2743.5 1246.44,-692.42 2623.3,-1150.35 4063.07,-1336.36 1439.86,-186.01 2887.78,-93.07 4268.96,259.74 1381.53,352.9 2696.7,965.76 3870.81,1819.44 23.93,17.34 29.27,50.82 11.93,74.75 -17.34,23.93 -50.82,29.27 -74.75,11.93 -1162.98,-845.6 -2465.78,-1452.67 -3834.37,-1802.26 -1368.9,-349.67 -2803.32,-441.86 -4229.18,-257.66 -1425.96,184.22 -2789.77,637.87 -4024.55,1323.8 -1234.75,685.92 -2340.48,1604.14 -3250.35,2717.54 -909.82,1113.32 -1589.46,2379.84 -2015.77,3726.67 -426.3,1346.75 -599.26,2773.65 -495.79,4207.8 103.45,1434.24 479.41,2821.49 1094.51,4092.93 615.23,1271.67 1469.58,2427.48 2529.72,3398.65z"/>
  <path class="fil0" d="M19165.45 19478.4c21.27,-20.46 55.13,-19.8 75.59,1.47 20.46,21.27 19.8,55.13 -1.47,75.59 -906.7,872.35 -1945.5,1581.99 -3070.48,2107.38 -1125.05,525.45 -2336.05,866.57 -3587.01,1001.94 -1250.9,135.33 -2506.76,61.11 -3718.04,-211.52 -1211.26,-272.64 -2377.78,-743.64 -3450.07,-1401.88 -25.2,-15.37 -33.17,-48.3 -17.8,-73.5 15.37,-25.2 48.3,-33.17 73.5,-17.8 1062.5,652.22 2218.11,1118.88 3417.81,1388.91 1199.7,270.03 2443.81,343.51 3683.28,209.42 1239.46,-134.11 2439.01,-471.97 3553.11,-992.29 1114.16,-520.34 2143.2,-1223.36 3041.58,-2087.72z"/>
  <path class="fil0" d="M19835.59 3953.49c-19.42,-22.2 -17.18,-55.97 5.02,-75.39 22.2,-19.42 55.97,-17.18 75.39,5.02 269.17,307.4 521.56,629.16 756.08,963.73 234.77,334.92 451.14,681.9 648.05,1039.35 14.22,25.9 4.75,58.44 -21.15,72.66 -25.9,14.22 -58.44,4.75 -72.66,-21.15 -195.78,-355.4 -410.06,-699.14 -641.76,-1029.71 -231.97,-330.93 -481.97,-649.6 -748.98,-954.52z"/>
  <path class="fil0" d="M22114.08 8039.33c-8.67,-28.21 7.17,-58.13 35.38,-66.8 28.21,-8.67 58.13,7.17 66.8,35.38 173.15,559.05 302.59,1129.54 387.53,1706.25 84.9,576.43 125.4,1160.07 120.79,1745.7 -0.23,29.48 -24.32,53.2 -53.81,52.97 -29.48,-0.23 -53.2,-24.32 -52.97,-53.81 4.56,-578.89 -35.67,-1157.08 -119.96,-1729.36 -84.22,-571.92 -212.42,-1137.07 -383.77,-1690.34z"/>
  <path class="fil0" d="M22317.8 13952.99c6.7,-28.78 35.49,-46.69 64.27,-39.99 28.78,6.7 46.69,35.49 39.99,64.27 -140.65,596.74 -329.14,1180.22 -563.17,1744.84 -233.82,564.1 -513.39,1109.77 -836.35,1631.35 -15.49,25.08 -48.42,32.86 -73.5,17.37 -25.08,-15.49 -32.86,-48.42 -17.37,-73.5 319.51,-516.02 596.41,-1056.62 828.38,-1616.25 231.74,-559.1 418.43,-1136.99 557.74,-1728.09z"/>
 </g>
</svg>
