<?xml version="1.0" encoding="UTF-8"?>
<!DOCTYPE svg PUBLIC "-//W3C//DTD SVG 1.1//EN" "http://www.w3.org/Graphics/SVG/1.1/DTD/svg11.dtd">
<!-- Creator: CorelDRAW 2018 -->
<svg xmlns="http://www.w3.org/2000/svg" xml:space="preserve" width="30.1624mm" height="7.673mm" version="1.1" style="shape-rendering:geometricPrecision; text-rendering:geometricPrecision; image-rendering:optimizeQuality; fill-rule:evenodd; clip-rule:evenodd"
viewBox="0 0 10150.29 2582.13"
 xmlns:xlink="http://www.w3.org/1999/xlink">
 <defs>
  <style type="text/css">
   <![CDATA[
    .fil0 {fill:#E3B873}
   ]]>
  </style>
 </defs>
 <g id="Layer_x0020_1">
  <metadata id="CorelCorpID_0Corel-Layer"/>
  <path class="fil0" d="M68.72 1199.5l2711.79 0c37.99,0 68.75,30.76 68.75,68.72l-0.03 0c0.03,37.93 -30.72,68.68 -68.68,68.68l-2711.82 0.03c-37.93,-0.03 -68.68,-30.79 -68.68,-68.72l-0.03 0c0.03,-37.96 30.79,-68.72 68.75,-68.72l-0.03 0zm6089.79 771.58l-211.71 -47.05 0 -60.88c75.41,-52.73 124.92,-140.09 124.92,-238.86l0 -83.29c0,-146.56 -108.8,-267.9 -249.87,-288.2l0 -198.11 -384.88 -153.99 59.46 -59.4 -59.5 -89.21c12.01,-23.15 22.01,-47.25 29.88,-72.15l105.13 -21.07 0 -234.89 -105.1 -21.03c-7.87,-24.9 -17.9,-49.03 -29.88,-72.15l59.5 -89.21 -166.04 -166.04 -89.21 59.5c-23.12,-12.01 -47.25,-22.01 -72.15,-29.88l-21.07 -105.16 -234.86 0 -21.03 105.13c-24.9,7.87 -49.03,17.9 -72.12,29.88l-89.21 -59.5 -166.04 166.04 59.46 89.21c-11.98,23.12 -22.01,47.25 -29.85,72.12l-105.16 21.1 0 234.89 105.1 21.03c7.87,24.9 17.94,49 29.88,72.12l-59.5 89.21 59.46 59.43 -384.85 153.99 0 198.08c-141.04,20.33 -249.87,141.64 -249.87,288.23l0 83.26c0,98.84 49.5,186.2 124.95,238.9l0 60.84 -211.74 47.08c-96.04,21.34 -163.11,104.96 -163.11,203.26l0 407.83 2582.09 0 0 -407.83c0,-98.3 -67.07,-181.92 -163.11,-203.23zm-295.03 -25.1c-10.33,15.95 -39,53.1 -83.29,53.1 -44.25,0 -72.96,-37.22 -83.29,-53.1l0 -42.44c26.38,7.87 54.38,12.22 83.29,12.22 28.94,0 56.91,-4.34 83.29,-12.25l0 42.47zm124.95 -405l0 83.26c0,114.82 -93.42,208.24 -208.24,208.24 -114.79,0 -208.24,-93.42 -208.24,-208.24l0 -83.26c0,-114.82 93.45,-208.27 208.24,-208.27 114.82,0 208.24,93.45 208.24,208.27zm-249.87 -429.94l0 141.71c-141.07,20.33 -249.9,141.64 -249.9,288.23l0 83.26c0,98.84 49.54,186.2 124.95,238.9l0 60.84 -208.24 46.27 -208.24 -46.27 0 -60.84c75.45,-52.73 124.95,-140.09 124.95,-238.9l0 -83.26c0,-146.59 -108.8,-267.9 -249.87,-288.23l0 -169.91 75.78 0 21.03 -105.1c24.9,-7.87 49.03,-17.94 72.15,-29.88l89.21 59.5 42.5 -42.54 365.66 146.22zm-249.9 1387.78l-916.18 0 0 -324.51c0,-58.99 40.21,-109.13 97.83,-121.99l216.25 -48.06c23.83,31.57 71.21,78.11 144.03,78.11 72.82,0 120.17,-46.54 144,-78.07l216.25 48.06c57.61,12.82 97.83,63 97.83,121.96l0 324.51zm-458.07 -1166.11c114.79,0 208.21,93.45 208.21,208.27l0 83.26c0,114.82 -93.42,208.24 -208.21,208.24 -114.82,0 -208.24,-93.42 -208.24,-208.24l0 -83.26c0,-114.82 93.42,-208.27 208.24,-208.27zm0 583.06c28.91,0 56.87,-4.34 83.26,-12.25l0 42.44c-10.33,15.98 -39,53.14 -83.26,53.14 -44.25,0 -72.96,-37.22 -83.29,-53.1l0 -42.44c26.38,7.87 54.35,12.22 83.29,12.22zm-458.11 -1325.19l0 -98.3 88.77 -17.77 6.46 -25.41c8.88,-34.9 22.65,-68.18 40.95,-98.9l13.43 -22.58 -50.24 -75.38 69.49 -69.49 75.41 50.28 22.55 -13.46c30.72,-18.31 64.01,-32.14 98.94,-40.95l25.37 -6.46 17.84 -88.81 98.26 0 17.77 88.77 25.41 6.46c34.9,8.85 68.18,22.65 98.9,40.92l22.58 13.46 75.35 -50.24 69.53 69.49 -50.28 75.38 13.46 22.58c18.27,30.72 32.1,64.01 40.95,98.9l6.46 25.41 88.81 17.8 0 98.3 -88.77 17.77 -6.46 25.41c-8.88,34.93 -22.65,68.18 -40.95,98.9l-13.43 22.58 50.24 75.38 -69.49 69.53 -75.38 -50.28 -22.58 13.46c-30.72,18.27 -64.01,32.1 -98.9,40.92l-25.41 6.49 -17.8 88.81 -98.26 0 -17.8 -88.77 -25.37 -6.49c-34.93,-8.85 -68.21,-22.65 -98.94,-40.92l-22.55 -13.43 -75.38 50.24 -69.53 -69.53 50.28 -75.38 -13.46 -22.55c-18.27,-30.72 -32.1,-64.01 -40.92,-98.94l-6.49 -25.37 -88.81 -17.84zm115.76 374.21l42.54 42.5 89.21 -59.46c23.09,11.98 47.21,22.01 72.12,29.85l21.03 105.16 75.82 0 0 169.91c-141.07,20.33 -249.9,141.64 -249.9,288.23l0 83.26c0,98.84 49.5,186.2 124.95,238.9l0 60.84 -208.24 46.27 -208.24 -46.27 0 -60.84c75.41,-52.73 124.95,-140.09 124.95,-238.9l0 -83.26c0,-146.59 -108.83,-267.9 -249.9,-288.23l0 -141.71 365.66 -146.25zm-615.53 659.45l0 -83.26c0,-114.82 93.42,-208.27 208.24,-208.27 114.82,0 208.24,93.45 208.24,208.27l0 83.26c0,114.82 -93.42,208.24 -208.24,208.24 -114.82,0 -208.24,-93.42 -208.24,-208.24zm208.24 291.53c28.94,0 56.91,-4.34 83.29,-12.25l0 42.44c-10.33,15.98 -39.04,53.14 -83.29,53.14 -44.35,0 -73.09,-37.32 -83.29,-53.1l0 -42.47c26.38,7.91 54.35,12.25 83.29,12.25zm-458.11 258.55c0,-58.99 40.21,-109.13 97.83,-121.99l216.25 -48.06c23.83,31.57 71.17,78.11 144.03,78.11 72.82,0 120.21,-46.54 144,-78.07l121.62 27.06c-35.64,37.49 -57.38,87.66 -57.38,142.95l0 324.51 -666.35 0 0 -324.51zm2415.45 324.51l-666.35 0 0 -324.51c0,-55.29 -21.74,-105.5 -57.38,-143.02l121.62 -27.02c23.79,31.57 71.17,78.11 144,78.11 72.86,0 120.21,-46.54 144.03,-78.07l216.25 48.06c57.61,12.82 97.83,63 97.83,121.96l0 324.51zm-1252.13 -1902.42c0,-24.57 19.96,-44.52 44.52,-44.52 24.57,0 44.52,19.96 44.52,44.52l0 148.41c93.42,-20.49 163.58,-103.88 163.58,-203.36 0,-114.82 -93.42,-208.24 -208.21,-208.24 -114.82,0 -208.24,93.42 -208.24,208.24 0,99.58 70.3,183 163.82,203.43l0 -148.47zm2.76 -138.24c0,-23.02 18.64,-41.66 41.66,-41.66 22.98,0 41.63,18.64 41.63,41.66 0,22.98 -18.64,41.63 -41.63,41.63 -23.02,0 -41.66,-18.64 -41.66,-41.63zm41.66 374.82c160.72,0 291.49,-130.81 291.49,-291.53 0,-160.76 -130.77,-291.53 -291.49,-291.53 -160.76,0 -291.53,130.77 -291.53,291.53 0,160.72 130.77,291.53 291.53,291.53zm2339.19 366.54l2711.79 0c37.96,0 68.72,30.76 68.72,68.72l0 0c0,37.93 -30.76,68.68 -68.72,68.68l-2711.79 0.03c-37.96,-0.03 -68.72,-30.79 -68.72,-68.72l0 0c0,-37.96 30.76,-68.72 68.72,-68.72z"/>
 </g>
</svg>
