<?xml version="1.0" encoding="UTF-8"?>
<!DOCTYPE svg PUBLIC "-//W3C//DTD SVG 1.1//EN" "http://www.w3.org/Graphics/SVG/1.1/DTD/svg11.dtd">
<!-- Creator: CorelDRAW 2018 -->
<svg xmlns="http://www.w3.org/2000/svg" xml:space="preserve" width="30.1624mm" height="7.4084mm" version="1.1" style="shape-rendering:geometricPrecision; text-rendering:geometricPrecision; image-rendering:optimizeQuality; fill-rule:evenodd; clip-rule:evenodd"
viewBox="0 0 2088.05 512.86"
 xmlns:xlink="http://www.w3.org/1999/xlink">
 <defs>
  <style type="text/css">
   <![CDATA[
    .fil0 {fill:#E3B873}
   ]]>
  </style>
 </defs>
 <g id="Layer_x0020_1">
  <metadata id="CorelCorpID_0Corel-Layer"/>
  <path class="fil0" d="M14.14 238.11l557.85 0c7.82,-0.01 14.14,6.32 14.14,14.13l-0.01 0c0.01,7.8 -6.32,14.13 -14.13,14.13l-557.86 0.01c-7.8,-0.01 -14.13,-6.33 -14.13,-14.14l-0.01 0c0.01,-7.81 6.33,-14.14 14.14,-14.14l-0.01 0.01zm1220.46 149.16c-10.65,-7.49 -22.94,-11.52 -35.36,-12.18 -46.8,-30.65 -77.45,-53.65 -95.35,-71.55l-54.98 -54.98 33.36 -37.34c6.32,3.57 13.12,5.92 19.91,6.89 5.12,0.85 8.54,0.85 11.96,0.85 6.83,0 8.54,0 15.38,5.98 -3.42,2.56 -5.12,6.84 -5.12,11.11 0,4.27 1.7,9.39 5.12,12.81l29.9 29.9c4.27,5.12 11.11,7.69 17.94,7.69 6.83,0 13.67,-2.57 17.94,-8.54l60.66 -60.66c5.12,-4.27 7.69,-11.1 7.69,-17.94 0,-6.83 -2.57,-12.81 -7.69,-17.94l-29.91 -29.9c-3.41,-3.42 -7.68,-5.13 -11.96,-5.13 -4.27,0 -8.54,2.57 -11.96,5.13 -6.83,-5.98 -6.83,-7.69 -6.83,-14.52 0,-3.42 0,-7.69 -1.71,-12.81 -1.71,-11.96 -7.69,-23.92 -17.09,-33.32l-30.75 -30.76c-17.94,-17.94 -26.49,-26.49 -49.55,-36.74 -49.55,-23.07 -99.95,-18.8 -173.43,14.52 -4.27,1.71 -5.97,5.13 -5.12,9.4 0.85,4.27 4.27,6.83 8.54,6.83l11.1 0c37.59,0 57.24,0 91.41,34.18 14.96,14.96 15.39,37.9 1.99,54.79 -1.8,0.27 -3.18,1.08 -4.55,2.45l-37.95 42.36 -28.69 -28.69c-31.53,-31.53 -53.71,-61.36 -70.78,-94.58 -0.89,-16.81 -7.64,-32.53 -19.78,-44.67 -14.52,-14.52 -35.03,-21.36 -55.53,-19.65 -2.56,0.86 -5.12,2.57 -5.98,4.28 -1.71,2.56 -1.71,5.97 0,8.54l23.92 42.71c-5.13,11.1 -17.09,17.94 -29.05,17.09l-24.78 -41c-0.85,-2.57 -4.27,-4.27 -6.83,-4.27 -2.57,-0.86 -5.13,0.85 -6.84,3.41 -20.5,30.76 -12.81,71.77 17.94,93.12 10.59,7.57 22.53,11.78 34.63,12.64 0.13,0.06 0.26,0.12 0.39,0.17 33.32,17.09 63.22,39.3 94.83,70.91l31.25 30.54 -181.61 202.7c-6.83,6.83 -10.25,16.23 -10.25,25.63 0,9.39 3.42,17.94 10.25,24.77l11.96 11.96c6.83,5.98 15.38,9.4 23.92,9.4 8.54,0 17.94,-3.42 24.78,-10.25l181.4 -203.05 52.68 52.69c17.92,17.92 40.96,49.49 71.68,95.55 1.1,16.44 7.83,31.8 19.74,43.7 12.81,12.82 29.9,19.65 47.84,19.65 2.56,0 5.12,0 6.83,0 2.56,0 5.12,-1.71 6.83,-4.27 1.71,-2.56 1.71,-5.98 0,-8.54l-24.78 -41.86c5.98,-11.1 17.09,-17.94 29.91,-17.09l23.92 41.01c0.85,2.56 4.27,4.27 6.84,4.27 3.41,-0.85 5.97,-1.71 7.68,-4.27 20.5,-30.76 11.96,-71.76 -17.94,-93.12zm-194.78 -312.68c-27.33,-26.48 -47.84,-35.03 -70.9,-37.59 48.69,-15.38 84.57,-14.52 120.45,1.71 20.5,8.54 27.34,15.38 45.27,33.32l30.76 30.76c6.83,6.83 11.1,15.38 11.96,23.92 0.85,4.27 0.85,7.69 0.85,10.25 0,9.4 0.86,16.23 11.11,26.49 3.41,3.41 8.54,5.12 12.81,5.12 5.12,0 9.39,-1.71 11.96,-5.12l29.91 29.9c1.71,1.71 2.56,3.42 2.56,5.98 0,2.56 -0.85,4.27 -2.56,5.98l-60.66 60.66c-3.42,3.42 -8.54,3.42 -11.96,0l-29.9 -29.9c3.41,-2.57 5.12,-6.84 4.27,-11.96 0,-4.27 -1.71,-9.4 -5.13,-12.81 -10.25,-10.25 -17.09,-11.11 -26.48,-11.11 -2.57,0 -5.98,0 -10.25,-0.85 -9.4,-0.85 -17.09,-5.13 -23.92,-11.96l-36.73 -36.73c18.79,-23.07 17.09,-55.53 -3.42,-76.04zm-268.25 -20.5l17.94 30.76c1.7,2.56 4.27,4.27 6.83,4.27l4.27 0c19.65,0.86 37.59,-9.39 46.13,-26.48l1.71 -4.28c1.71,-2.56 1.71,-5.12 0,-7.68l-18.8 -32.47c10.25,1.71 19.65,6.83 27.34,14.52 8.81,9.55 14.45,21.61 14.78,34.57 -0.16,0.66 -0.26,1.37 -0.26,2.17 0,3.95 -0.48,7.82 -1.36,11.53 -3.22,12.37 -10.94,23.16 -21.7,30.33 -17.09,11.1 -40.15,11.1 -57.24,-0.85 -17.94,-12.82 -25.63,-35.89 -19.65,-56.39zm152.07 141.82c-25.63,-26.48 -51.26,-46.98 -78.6,-63.22 4.27,-1.71 9.4,-4.27 13.67,-6.83 12.81,-8.54 21.36,-19.65 26.48,-33.32 16.23,27.34 36.74,52.97 62.37,78.59l29.35 29.35 -23.01 25.68 -30.25 -30.25zm-113.62 293.9c-6.84,6.83 -17.94,7.68 -24.78,0.85l-11.96 -11.1c-3.42,-3.42 -5.13,-7.69 -5.13,-11.96 0,-5.13 1.71,-9.4 5.98,-13.67l4.84 -5.41 12.25 12.25c1.71,1.71 3.42,2.56 5.98,2.56 2.56,0 4.27,-0.85 5.98,-2.56 3.42,-3.42 3.42,-8.54 0,-11.96l-12.92 -12.92 11.29 -12.63 13.59 13.59c1.71,1.71 3.41,2.56 5.98,2.56 2.56,0 4.27,-0.85 5.98,-2.56 3.41,-3.41 3.41,-8.54 0,-11.96l-14.26 -14.25 219.75 -245.87 35.88 35.89 -35.25 39.44c-1.01,0.43 -1.9,1.08 -2.79,1.97l-34.17 38.44c-0.98,0.98 -1.66,2.09 -2.08,3.27l-184.16 206.05zm205.04 -203.33l23.38 -26.17 55.21 55.21c15.38,16.23 41.86,36.73 80.3,62.37 -5.12,1.71 -10.25,4.27 -15.38,7.68 -10.6,6.63 -18.11,15.83 -23.34,25.99 -0.08,0.15 -0.15,0.29 -0.23,0.44 -0.3,0.62 -0.61,1.23 -0.91,1.85 -0.42,0.87 -0.82,1.76 -1.2,2.66 -0.26,0.6 -0.52,1.21 -0.77,1.82 -0.03,0.08 -0.07,0.17 -0.1,0.26 -0.27,0.67 -0.54,1.34 -0.79,2.01 -4.85,-7.12 -9.53,-13.83 -14.01,-20.16l11.45 -11.45c3.41,-3.41 3.41,-8.54 0,-11.96 -3.42,-3.41 -8.55,-3.41 -11.96,0l-9.53 9.53c-3.55,-4.82 -6.98,-9.36 -10.29,-13.63l7.85 -7.85c3.42,-3.42 3.42,-8.54 0,-11.96 -3.42,-3.42 -8.54,-3.42 -11.96,0l-6.52 6.52c-6.28,-7.57 -12.07,-14.01 -17.4,-19.34l-53.81 -53.82zm228.95 170.86l-17.94 -30.76c-1.71,-2.56 -4.27,-4.27 -6.83,-4.27l-4.27 0c-19.65,-1.71 -37.59,9.4 -46.13,26.49l-1.71 4.27c-1.71,2.56 -1.71,5.12 0,7.68l18.8 32.47c-10.25,-1.71 -19.65,-6.83 -27.34,-14.52 -8.65,-9.36 -14.23,-21.16 -14.75,-33.84 0.15,-0.62 0.23,-1.29 0.23,-2.04 0,-10.83 3.43,-20.95 9.42,-29.54 3.68,-5.12 8.28,-9.6 13.64,-13.17 8.54,-5.98 17.94,-8.54 28.19,-8.54 10.25,0 20.5,3.41 29.05,9.39 17.94,12.81 25.63,35.88 19.65,56.39zm272.06 -219.21l557.85 0c7.81,-0.01 14.14,6.32 14.14,14.13l0 0c0,7.8 -6.33,14.13 -14.14,14.13l-557.85 0.01c-7.81,-0.01 -14.14,-6.33 -14.14,-14.14l0 0c0,-7.81 6.33,-14.14 14.14,-14.14l0 0.01z"/>
 </g>
</svg>
