<?xml version="1.0" encoding="UTF-8"?>
<!DOCTYPE svg PUBLIC "-//W3C//DTD SVG 1.1//EN" "http://www.w3.org/Graphics/SVG/1.1/DTD/svg11.dtd">
<!-- Creator: CorelDRAW 2018 -->
<svg xmlns="http://www.w3.org/2000/svg" xml:space="preserve" width="30.1621mm" height="7.4847mm" version="1.1" style="shape-rendering:geometricPrecision; text-rendering:geometricPrecision; image-rendering:optimizeQuality; fill-rule:evenodd; clip-rule:evenodd"
viewBox="0 0 2508.42 622.46"
 xmlns:xlink="http://www.w3.org/1999/xlink">
 <defs>
  <style type="text/css">
   <![CDATA[
    .fil0 {fill:#E3B873}
   ]]>
  </style>
 </defs>
 <g id="Layer_x0020_1">
  <metadata id="CorelCorpID_0Corel-Layer"/>
  <path class="fil0" d="M16.98 288.24l670.16 0c9.39,0 16.99,7.6 16.99,16.98l-0.01 0c0.01,9.36 -7.59,16.97 -16.97,16.97l-670.16 0.01c-9.37,-0.01 -16.97,-7.61 -16.97,-16.97l-0.01 0c0.01,-9.38 7.61,-16.98 16.99,-16.98l-0.01 0zm1478.92 181.07c3.27,-5.1 10.07,-6.58 15.17,-3.31 5.1,3.27 6.58,10.07 3.31,15.17 -12.33,19.24 -29.6,38.21 -48.51,55.13 -21.22,19 -44.58,35.51 -65.37,46.99 -20.82,11.5 -42.51,20.52 -66.53,27.09 -23.85,6.51 -49.84,10.55 -79.37,12.08 -6.05,0.31 -11.21,-4.36 -11.52,-10.4 -0.31,-6.05 4.36,-11.21 10.4,-11.52 28.03,-1.46 52.49,-5.22 74.73,-11.29 22.06,-6.02 42.2,-14.43 61.71,-25.21 19.54,-10.79 41.47,-26.27 61.33,-44.06 17.48,-15.64 33.39,-33.09 44.65,-50.66zm-436.91 -370.59c-4.57,3.98 -11.53,3.5 -15.51,-1.07 -3.98,-4.57 -3.5,-11.53 1.07,-15.51 17.23,-14.99 31.49,-26.04 46.82,-35.49 15.35,-9.45 31.39,-17.07 52.14,-25.17 22.17,-8.66 40.88,-14.03 60.13,-17.23 19.24,-3.21 38.71,-4.24 62.52,-4.24 6.07,0 11,4.93 11,11 0,6.07 -4.93,11 -11,11 -22.84,0 -41.26,0.95 -58.91,3.89 -17.66,2.94 -35,7.94 -55.74,16.03 -19.69,7.68 -34.67,14.77 -48.62,23.35 -13.96,8.6 -27.38,19.04 -43.91,33.43zm-57.61 416.46c0,6.07 -4.93,11 -11,11 -6.07,0 -11,-4.93 -11,-11l0 -49.88c0,-6.07 4.93,-11 11,-11l49.82 0c6.07,0 11,4.93 11,11 0,6.07 -4.93,11 -11,11l-38.81 0 0 38.88zm458.12 -468.39c0,-6.07 4.93,-11 11,-11 6.07,0 11,4.93 11,11l0 61.65c0,6.07 -4.93,11 -11,11l-62.35 0c-6.07,0 -11,-4.93 -11,-11 0,-6.07 4.93,-11 11,-11l51.35 0 0 -50.65zm-28.2 15.44c0,-5.9 -4.78,-10.69 -10.69,-10.69 -5.9,0 -10.69,4.78 -10.69,10.69 0,5.9 4.78,10.69 10.69,10.69 5.9,0 10.69,-4.78 10.69,-10.69zm-51.69 -27.6c0,-5.9 -4.78,-10.69 -10.69,-10.69 -5.9,0 -10.69,4.78 -10.69,10.69 0,5.9 4.78,10.69 10.69,10.69 5.9,0 10.69,-4.78 10.69,-10.69zm-172.7 569.37c0,-5.9 -4.78,-10.69 -10.69,-10.69 -5.9,0 -10.69,4.78 -10.69,10.69 0,5.9 4.78,10.69 10.69,10.69 5.9,0 10.69,-4.78 10.69,-10.69zm-56.09 -17.44c0,-5.9 -4.78,-10.69 -10.69,-10.69 -5.9,0 -10.69,4.78 -10.69,10.69 0,5.9 4.78,10.69 10.69,10.69 5.9,0 10.69,-4.78 10.69,-10.69zm-51.68 -27.26c0,-5.9 -4.78,-10.69 -10.69,-10.69 -5.9,0 -10.69,4.78 -10.69,10.69 0,5.9 4.78,10.69 10.69,10.69 5.9,0 10.69,-4.78 10.69,-10.69zm-45.29 -37.15c0,-5.9 -4.78,-10.69 -10.69,-10.69 -5.9,0 -10.69,4.78 -10.69,10.69 0,5.9 4.78,10.69 10.69,10.69 5.9,0 10.69,-4.78 10.69,-10.69zm269.7 -504.53c0,-5.9 -4.78,-10.69 -10.69,-10.69 -5.9,0 -10.69,4.78 -10.69,10.69 0,5.9 4.78,10.69 10.69,10.69 5.9,0 10.69,-4.78 10.69,-10.69zm50.03 172.92l-106.63 -31.99c-8,-2.39 -16.23,-3.23 -24.38,-2.94l0 -0.27 -129.6 0 -229.79 -76.36 0.7 322.89 65.96 32.97 39.06 -95.48 57.05 22.83 14.79 -36.97 21.43 21.42 -19.99 20c-6.94,6.94 -10.93,16.56 -10.93,26.39 0,20.12 16.04,36.48 36,37.18 0.69,19.5 16.37,35.18 35.87,35.87 0.69,19.5 16.37,35.18 35.87,35.87 0.72,19.96 17.07,36 37.19,36 9.82,0 19.44,-3.98 26.38,-10.93l20 -19.99 8.03 8.03c6.94,6.94 16.56,10.93 26.39,10.93 20.13,0 36.48,-16.04 37.18,-35.99 19.5,-0.7 35.18,-16.38 35.87,-35.88 19.5,-0.69 35.18,-16.37 35.87,-35.87 19.96,-0.72 36.01,-17.07 36.01,-37.18 0,-1.7 -0.27,-3.38 -0.51,-5.06l17.17 -17.16 13.86 27.74 75.1 -37.56 45.38 86.66 52.25 -34.82 0 -309.04 -251.61 98.7zm-436.12 211.39l-29.67 -14.84 -0.61 -274.93 131.02 43.54 -100.74 246.23zm95.19 -70.82l-34.7 -13.87 62.99 -153.98 34.28 11.39 -62.57 156.46zm42.53 61.93c0,-3.53 1.42,-6.99 3.92,-9.49l21.02 -21.02c2.5,-2.5 5.95,-3.93 9.48,-3.93 7.39,0 13.41,6.02 13.41,13.41 0,3.53 -1.42,6.98 -3.93,9.48l-21.02 21.02c-2.49,2.49 -5.95,3.92 -9.48,3.92 -7.39,0 -13.41,-6.01 -13.41,-13.4zm35.87 35.87c0,-3.53 1.42,-6.99 3.93,-9.49l21.02 -21.02c2.5,-2.49 5.96,-3.93 9.49,-3.93 7.39,0 13.4,6.02 13.4,13.41 0,3.53 -1.42,6.99 -3.92,9.48l-21.02 21.02c-2.49,2.49 -5.95,3.92 -9.48,3.92 -7.39,0 -13.41,-6.01 -13.41,-13.4zm35.88 35.87c0,-3.53 1.41,-6.99 3.92,-9.49l21.02 -21.02c2.49,-2.49 5.95,-3.93 9.48,-3.93 7.39,0 13.41,6.02 13.41,13.41 0,3.53 -1.43,6.99 -3.93,9.48l-21.02 21.02c-2.5,2.5 -5.95,3.92 -9.49,3.92 -7.39,0 -13.4,-6.01 -13.4,-13.4zm79.77 24.33l-21.02 21.02c-2.5,2.49 -5.95,3.92 -9.48,3.92 -7.39,0 -13.41,-6.02 -13.41,-13.4 0,-3.53 1.42,-6.99 3.92,-9.49l21.02 -21.02c2.49,-2.49 5.95,-3.92 9.48,-3.92 7.39,0 13.41,6.01 13.41,13.4 0,3.53 -1.42,6.99 -3.93,9.49zm157.91 -94.63c-3.53,0 -6.98,-1.42 -9.48,-3.92l-100.18 -100.18 -16.91 16.91 100.18 100.17c2.5,2.51 3.93,5.96 3.93,9.49 0,7.39 -6.01,13.4 -13.41,13.4 -3.53,0 -6.98,-1.41 -9.48,-3.92l-100.19 -100.19 -16.91 16.91 100.19 100.19c2.5,2.5 3.93,5.95 3.93,9.49 0,7.38 -6.01,13.4 -13.41,13.4 -3.53,0 -6.99,-1.42 -9.48,-3.92l-100.19 -100.2 -16.91 16.91 100.19 100.19c2.49,2.5 3.93,5.95 3.93,9.49 0,7.39 -6.02,13.4 -13.41,13.4 -3.53,0 -6.99,-1.42 -9.48,-3.92l-13.49 -13.5c0.24,-1.66 0.5,-3.34 0.5,-5.06 0,-20.12 -16.05,-36.48 -36,-37.18 -0.69,-19.5 -16.38,-35.17 -35.87,-35.87 -0.7,-19.5 -16.38,-35.18 -35.88,-35.87 -0.72,-19.96 -17.06,-36.01 -37.18,-36.01 -1.7,0 -3.37,0.27 -5.05,0.51l-34.14 -34.13 48.73 -121.8 70.65 0 -43.9 43.91c-7.05,7.04 -10.93,16.42 -10.93,26.39 0,20.57 16.74,37.31 37.32,37.31 9.83,0 19.44,-3.98 26.39,-10.93l31.68 -31.69c6.48,-6.45 17.9,-6.7 24.64,-0.52l27.95 25.62c9.29,8.52 19.62,15.59 30.66,21.14l80.49 81.09c2.49,2.5 3.92,5.95 3.92,9.49 0,7.39 -6.01,13.4 -13.41,13.4zm25.37 -40.82l-49.15 -49.52c4.39,0.42 8.82,0.67 13.28,0.67l0 -23.91c-27.84,0 -54.48,-10.36 -75,-29.17l-27.96 -25.61c-15.78,-14.5 -42.55,-13.91 -57.7,1.26l-31.67 31.68c-2.51,2.49 -5.97,3.92 -9.5,3.92 -7.39,0 -13.41,-6.01 -13.41,-13.4 0,-3.59 1.39,-6.94 3.93,-9.49l45.57 -45.57c13.4,-13.39 33.51,-18.49 51.7,-13.04l105.63 31.69 61.59 123.19 -17.32 17.32zm53.17 0.86l-72.49 -145 52.95 -20.77 72.86 139.1 -53.32 26.67zm138.14 33.56l-19.49 13 -115.79 -221.1 135.28 -53.06 0 261.16zm219.99 -99.85l670.16 0c9.38,0 16.98,7.6 16.98,16.98l0 0c0,9.36 -7.6,16.97 -16.98,16.97l-670.16 0.01c-9.38,-0.01 -16.98,-7.61 -16.98,-16.97l0 0c0,-9.38 7.6,-16.98 16.98,-16.98z"/>
 </g>
</svg>
