<?xml version="1.0" encoding="UTF-8"?>
<!DOCTYPE svg PUBLIC "-//W3C//DTD SVG 1.1//EN" "http://www.w3.org/Graphics/SVG/1.1/DTD/svg11.dtd">
<!-- Creator: CorelDRAW 2018 -->
<svg xmlns="http://www.w3.org/2000/svg" xml:space="preserve" width="9.8524mm" height="11.6417mm" version="1.1" style="shape-rendering:geometricPrecision; text-rendering:geometricPrecision; image-rendering:optimizeQuality; fill-rule:evenodd; clip-rule:evenodd"
viewBox="0 0 765.14 904.09"
 xmlns:xlink="http://www.w3.org/1999/xlink">
 <defs>
  <style type="text/css">
   <![CDATA[
    .fil0 {fill:white}
   ]]>
  </style>
 </defs>
 <g id="Layer_x0020_1">
  <metadata id="CorelCorpID_0Corel-Layer"/>
  <path class="fil0" d="M430.1 0c-184.74,0 -335.02,150.3 -335.02,335.02l0 54.94 -93.29 160.55c-1.17,2.02 -1.79,4.32 -1.79,6.66l0 55.76c0,7.32 5.93,13.25 13.24,13.25l81.84 0 0 89.15c0,39.56 32.19,71.75 71.75,71.75l26.95 0c7.31,0 13.23,-5.93 13.23,-13.25 0,-7.32 -5.93,-13.24 -13.24,-13.24l-26.94 0c-24.96,0 -45.26,-20.31 -45.26,-45.26l0 -89.15 37.94 0c7.32,0 13.24,-5.93 13.24,-13.25l0 -87.76c0,-7.32 -5.93,-13.24 -13.24,-13.24l-29.25 0c-7.32,0 -13.24,5.93 -13.24,13.24 0,7.32 5.93,13.24 13.24,13.24l16.01 0 0 61.27 -119.79 0 0 -32.02 45.27 0c7.31,0 13.24,-5.93 13.24,-13.24 0,-7.32 -5.93,-13.24 -13.24,-13.24l-33.9 0 81.74 -140.7c1.25,-2.03 1.96,-4.4 1.96,-6.94l0 -58.52c0,-170.12 138.41,-308.53 308.54,-308.53 170.14,0 308.54,138.41 308.54,308.53l0 117.02c0,127.25 -76.1,239.47 -194.09,286.6l-34.01 0c-7.32,0 -13.25,5.93 -13.25,13.24 0,7.32 5.93,13.24 13.25,13.24l23.33 0 0 112.48 -244.11 0 0 -90.53 30.63 0c7.32,0 13.24,-5.93 13.24,-13.25 0,-7.31 -5.93,-13.24 -13.24,-13.24l-43.84 0 -0.04 0 -29.69 0c-7.32,0 -13.25,5.93 -13.25,13.24 0,7.32 5.93,13.25 13.25,13.25l16.45 0 0 103.77c0,7.32 5.93,13.25 13.24,13.25l270.6 0c7.31,0 13.24,-5.93 13.24,-13.25l0 -130.05c58.49,-24.68 108.48,-65.21 144.96,-117.66 39.13,-56.25 59.81,-122.32 59.81,-191.09l0 -117.02c0,-184.73 -150.3,-335.02 -335.03,-335.02zm167.55 135.74l-31.03 31.03c-5.16,5.17 -5.16,13.56 0.01,18.73 2.58,2.59 5.97,3.88 9.36,3.88 3.39,0 6.78,-1.29 9.37,-3.88l31.03 -31.03c5.17,-5.17 5.17,-13.56 0,-18.73 -5.16,-5.17 -13.55,-5.17 -18.72,0zm82.73 199.73c7.32,0 13.24,-5.93 13.24,-13.24 0,-7.32 -5.93,-13.24 -13.24,-13.24l-43.89 0c-7.32,0 -13.24,5.93 -13.24,13.24 0,7.31 5.93,13.24 13.24,13.24l43.89 0zm-113.76 123.48c-5.17,5.17 -5.17,13.55 0,18.73l31.03 31.03c2.59,2.59 5.98,3.88 9.37,3.88 3.39,0 6.78,-1.29 9.37,-3.88 5.17,-5.18 5.17,-13.57 0,-18.74l-31.03 -31.03c-5.17,-5.17 -13.55,-5.17 -18.72,0zm-292.18 0l-31.03 31.03c-5.17,5.18 -5.17,13.56 0,18.73 2.59,2.59 5.97,3.88 9.36,3.88 3.39,0 6.78,-1.29 9.37,-3.88l31.03 -31.03c5.17,-5.17 5.17,-13.56 0,-18.74 -5.17,-5.17 -13.56,-5.16 -18.72,0zm-51.15 -149.96l-43.88 0c-7.32,0 -13.25,5.93 -13.25,13.24 0,7.32 5.93,13.24 13.25,13.24l43.88 0c7.32,0 13.25,-5.93 13.25,-13.24 0,-7.31 -5.93,-13.24 -13.25,-13.24zm38.85 -173.24c-5.17,-5.16 -13.56,-5.16 -18.73,0 -5.16,5.17 -5.16,13.56 0,18.73l31.03 31.03c2.59,2.59 5.97,3.88 9.37,3.88 3.39,0 6.77,-1.3 9.36,-3.88 5.18,-5.17 5.18,-13.55 0,-18.72l-31.03 -31.03zm180.99 -20.12l0 -43.88c0,-7.32 -5.93,-13.24 -13.24,-13.24 -7.32,0 -13.24,5.93 -13.24,13.24l0 43.88c0,7.32 5.93,13.24 13.24,13.24 7.32,0 13.24,-5.93 13.24,-13.24zm-187.37 204.77c0,35.75 10.74,70.09 31.09,99.33 18.12,26.05 42.64,46.43 71.29,59.39l0 27.34 -1.37 0c-7.32,0 -13.25,5.93 -13.25,13.24 0,7.31 5.93,13.24 13.25,13.24l1.37 0 0 36.13c0,7.31 5.93,13.24 13.24,13.24l1.39 0 0 30.64c0,7.32 5.93,13.25 13.24,13.25l87.76 0c7.31,0 13.24,-5.93 13.24,-13.25l0 -30.64 1.39 0c7.31,0 13.24,-5.93 13.24,-13.24l0 -36.13 1.37 0c7.32,0 13.25,-5.93 13.25,-13.24 0,-7.32 -5.93,-13.24 -13.25,-13.24l-1.37 0 0 -27.34c28.66,-12.95 53.17,-33.34 71.29,-59.39 20.34,-29.24 31.09,-63.58 31.09,-99.33 0,-96.02 -78.11,-174.14 -174.14,-174.14 -96.02,0 -174.13,78.12 -174.13,174.14zm143.5 42.5l10.52 0 25.37 25.37c2.49,2.49 5.86,3.88 9.37,3.88 3.51,0 6.88,-1.4 9.37,-3.88l6.64 -6.64 0 75.45 -61.27 0 0 -94.18zm61.27 236.79l-61.27 0 0 -17.4 61.27 0 0 17.4zm14.63 -43.89l-90.53 0 0 -22.88 90.53 0 0 22.88zm-90.53 -49.36l0 -22.88 90.53 0 0 22.88 -90.53 0zm45.27 -333.7c81.41,0 147.65,66.24 147.65,147.65 0,60.05 -35.41,113.08 -90.53,136.17l0 -106.91c0,0 0,0 0,-0.01l0 -14.62c0,-7.31 -5.93,-13.24 -13.24,-13.24 -7.32,0 -13.25,5.93 -13.25,13.24l0 9.15 -16.01 16.01 -19.89 -19.9c-2.49,-2.49 -5.86,-3.88 -9.37,-3.88l-16.01 0 0 -1.39c0,-7.31 -5.93,-13.24 -13.25,-13.24 -7.31,0 -13.24,5.93 -13.24,13.24l0 121.55c-55.12,-23.09 -90.53,-76.12 -90.53,-136.17 0,-81.41 66.24,-147.65 147.65,-147.65z"/>
 </g>
</svg>
