<?xml version="1.0" encoding="UTF-8"?>
<!DOCTYPE svg PUBLIC "-//W3C//DTD SVG 1.1//EN" "http://www.w3.org/Graphics/SVG/1.1/DTD/svg11.dtd">
<!-- Creator: CorelDRAW 2018 -->
<svg xmlns="http://www.w3.org/2000/svg" xml:space="preserve" width="3.572mm" height="3.572mm" version="1.1" style="shape-rendering:geometricPrecision; text-rendering:geometricPrecision; image-rendering:optimizeQuality; fill-rule:evenodd; clip-rule:evenodd"
viewBox="0 0 57.7 57.7"
 xmlns:xlink="http://www.w3.org/1999/xlink">
 <defs>
  <style type="text/css">
   <![CDATA[
    .fil0 {fill:white;fill-rule:nonzero}
   ]]>
  </style>
 </defs>
 <g id="Layer_x0020_1">
  <metadata id="CorelCorpID_0Corel-Layer"/>
  <g id="_712774952">
   <path class="fil0" d="M41.67 6.41l-25.64 0c-2.66,0 -5.06,1.08 -6.8,2.82 -1.74,1.74 -2.82,4.15 -2.82,6.8l0 25.64c0,2.66 1.08,5.06 2.82,6.8 1.74,1.74 4.15,2.82 6.8,2.82l25.64 0c2.66,0 5.06,-1.08 6.8,-2.82 1.74,-1.73 2.82,-4.14 2.82,-6.8l0 -25.64c0,-2.66 -1.08,-5.06 -2.82,-6.8 -1.74,-1.74 -4.14,-2.82 -6.8,-2.82zm-25.64 -6.41l25.64 0c4.42,0 8.43,1.8 11.33,4.7 2.9,2.9 4.7,6.91 4.7,11.33l0 25.64c0,4.41 -1.8,8.42 -4.7,11.33 -2.89,2.91 -6.9,4.7 -11.33,4.7l-25.64 0c-4.42,0 -8.43,-1.79 -11.33,-4.7 -2.9,-2.9 -4.7,-6.91 -4.7,-11.33l0 -25.64c0,-4.42 1.8,-8.43 4.7,-11.33 2.9,-2.9 6.91,-4.7 11.33,-4.7z"/>
   <path class="fil0" d="M42.28 26.77c0.21,1.39 0.19,2.8 -0.04,4.19 -0.23,1.38 -0.68,2.72 -1.32,3.97 -0.65,1.26 -1.5,2.4 -2.5,3.39 -0.99,0.98 -2.14,1.8 -3.4,2.44l-0.19 0.09c-1.21,0.58 -2.5,0.98 -3.81,1.19 -1.38,0.21 -2.8,0.21 -4.19,-0.01 -1.42,-0.23 -2.77,-0.67 -3.99,-1.29l-0.25 -0.14c-1.17,-0.63 -2.23,-1.41 -3.15,-2.32 -0.98,-0.98 -1.81,-2.13 -2.46,-3.4 -0.64,-1.23 -1.08,-2.57 -1.31,-3.98l-0.02 -0.13c-0.2,-1.35 -0.2,-2.72 0.01,-4.07 0.21,-1.39 0.65,-2.74 1.28,-3.99 0.63,-1.26 1.46,-2.41 2.44,-3.4l0.07 -0.07c0.97,-0.96 2.09,-1.79 3.32,-2.43 1.25,-0.65 2.59,-1.09 3.97,-1.32 1.38,-0.23 2.8,-0.25 4.19,-0.04 1.42,0.21 2.8,0.65 4.08,1.3l0.17 0.09c1.21,0.63 2.32,1.44 3.29,2.41 1.01,1 1.85,2.17 2.5,3.46l0.09 0.19c0.6,1.23 1.01,2.55 1.21,3.89zm-6.35 3.13c0.12,-0.72 0.13,-1.46 0.02,-2.21 -0.1,-0.71 -0.31,-1.39 -0.61,-2.01l-0.06 -0.12c-0.33,-0.65 -0.78,-1.27 -1.32,-1.81 -0.5,-0.51 -1.07,-0.93 -1.67,-1.26l-0.14 -0.07c-0.66,-0.33 -1.38,-0.56 -2.13,-0.67 -0.74,-0.11 -1.49,-0.1 -2.21,0.02 -0.72,0.12 -1.43,0.36 -2.09,0.7 -0.64,0.33 -1.22,0.76 -1.72,1.26l-0.04 0.04c-0.52,0.52 -0.95,1.13 -1.29,1.79 -0.34,0.67 -0.57,1.38 -0.68,2.09 -0.11,0.69 -0.11,1.4 -0,2.11l0.01 0.08c0.12,0.72 0.36,1.43 0.69,2.1 0.31,0.63 0.75,1.23 1.29,1.77 0.49,0.49 1.03,0.9 1.59,1.21l0.18 0.09c0.67,0.34 1.38,0.58 2.09,0.69 0.74,0.12 1.49,0.12 2.21,0.01 0.68,-0.1 1.34,-0.31 1.97,-0.61l0.12 -0.07c0.66,-0.33 1.27,-0.77 1.79,-1.29 0.51,-0.51 0.95,-1.1 1.29,-1.76 0.34,-0.66 0.58,-1.37 0.7,-2.09z"/>
  </g>
 </g>
</svg>
