<?xml version="1.0" encoding="UTF-8"?>
<!DOCTYPE svg PUBLIC "-//W3C//DTD SVG 1.1//EN" "http://www.w3.org/Graphics/SVG/1.1/DTD/svg11.dtd">
<!-- Creator: CorelDRAW 2018 -->
<svg xmlns="http://www.w3.org/2000/svg" xml:space="preserve" width="4.1012mm" height="3.3604mm" version="1.1" style="shape-rendering:geometricPrecision; text-rendering:geometricPrecision; image-rendering:optimizeQuality; fill-rule:evenodd; clip-rule:evenodd"
viewBox="0 0 40.04 32.81"
 xmlns:xlink="http://www.w3.org/1999/xlink">
 <defs>
  <style type="text/css">
   <![CDATA[
    .fil0 {fill:white;fill-rule:nonzero}
   ]]>
  </style>
 </defs>
 <g id="Layer_x0020_1">
  <metadata id="CorelCorpID_0Corel-Layer"/>
  <path class="fil0" d="M5.55 0l28.93 0c1.53,0 2.92,0.63 3.92,1.63l0.12 0.13c0.93,0.99 1.51,2.33 1.51,3.79l0 21.7c0,1.52 -0.63,2.91 -1.63,3.92 -1,1.01 -2.39,1.64 -3.92,1.64l-28.93 0c-1.53,0 -2.92,-0.63 -3.92,-1.63l-0.12 -0.13c-0.93,-0.99 -1.51,-2.33 -1.51,-3.79l0 -21.7c0,-1.52 0.63,-2.91 1.63,-3.92 1,-1.01 2.39,-1.64 3.92,-1.64zm30.61 9.27l-15.04 10.53c-0.69,0.48 -1.58,0.45 -2.23,-0.01l-15.02 -10.51 0 17.98c0,0.43 0.16,0.82 0.42,1.12l0.07 0.07c0.3,0.3 0.72,0.49 1.18,0.49l28.93 0c0.46,0 0.88,-0.19 1.18,-0.49 0.31,-0.3 0.49,-0.72 0.49,-1.19l0 -17.98zm-32.06 -4.55l15.92 11.14 15.92 -11.14c-0.06,-0.1 -0.12,-0.19 -0.2,-0.28l-0.07 -0.07c-0.3,-0.3 -0.72,-0.49 -1.18,-0.49l-28.93 0c-0.46,0 -0.88,0.19 -1.18,0.49 -0.1,0.1 -0.19,0.22 -0.27,0.35z"/>
 </g>
</svg>
