<svg width="352" height="559" viewBox="0 0 352 559" fill="none" xmlns="http://www.w3.org/2000/svg">
<g opacity="0.05" clip-path="url(#clip0)">
<path d="M12.4365 477.634H-28.5796V573.658H12.4365V477.634Z" fill="#333333"/>
<path d="M176.501 531.671H120.321V588.938H176.501V531.671Z" fill="#333333"/>
<path d="M167.676 526.578H129.27V551.298H167.676V526.578Z" fill="#333333"/>
<path d="M54.6954 413.411H-8.07159V572.789H54.6954V413.411Z" fill="#333333"/>
<path opacity="0.46" d="M10.1992 420.616H-4.96429V423.474H10.1992V420.616Z" fill="#E6E6E6"/>
<path opacity="0.34" d="M30.9559 420.616H15.7924V423.474H30.9559V420.616Z" fill="#E6E6E6"/>
<path opacity="0.52" d="M51.5882 420.616H36.4247V423.474H51.5882V420.616Z" fill="#E6E6E6"/>
<path opacity="0.54" d="M10.1992 427.2H-4.96429V430.057H10.1992V427.2Z" fill="#E6E6E6"/>
<path opacity="0.3" d="M30.9559 427.2H15.7924V430.057H30.9559V427.2Z" fill="#E6E6E6"/>
<path opacity="0.06" d="M51.5882 427.2H36.4247V430.057H51.5882V427.2Z" fill="#E6E6E6"/>
<path opacity="0.15" d="M10.1992 433.784H-4.96429V436.641H10.1992V433.784Z" fill="#E6E6E6"/>
<path opacity="0.42" d="M30.9559 433.784H15.7924V436.641H30.9559V433.784Z" fill="#E6E6E6"/>
<path opacity="0.48" d="M51.5882 433.784H36.4247V436.641H51.5882V433.784Z" fill="#E6E6E6"/>
<path opacity="0.18" d="M10.1992 440.368H-4.96429V443.225H10.1992V440.368Z" fill="#E6E6E6"/>
<path opacity="0.28" d="M51.5882 440.368H36.4247V443.225H51.5882V440.368Z" fill="#E6E6E6"/>
<path opacity="0.29" d="M10.1992 446.951H-4.96429V449.809H10.1992V446.951Z" fill="#E6E6E6"/>
<path opacity="0.28" d="M30.9559 446.951H15.7924V449.809H30.9559V446.951Z" fill="#E6E6E6"/>
<path opacity="0.56" d="M51.5882 446.951H36.4247V449.809H51.5882V446.951Z" fill="#E6E6E6"/>
<path opacity="0.41" d="M10.1992 453.535H-4.96429V456.392H10.1992V453.535Z" fill="#E6E6E6"/>
<path opacity="0.16" d="M30.9559 453.535H15.7924V456.392H30.9559V453.535Z" fill="#E6E6E6"/>
<path opacity="0.4" d="M51.5882 453.535H36.4247V456.392H51.5882V453.535Z" fill="#E6E6E6"/>
<path opacity="0.1" d="M10.1992 460.119H-4.96429V462.976H10.1992V460.119Z" fill="#E6E6E6"/>
<path opacity="0.17" d="M30.9559 460.119H15.7924V462.976H30.9559V460.119Z" fill="#E6E6E6"/>
<path opacity="0.08" d="M51.5882 460.119H36.4247V462.976H51.5882V460.119Z" fill="#E6E6E6"/>
<path opacity="0.49" d="M10.1992 466.703H-4.96429V469.56H10.1992V466.703Z" fill="#E6E6E6"/>
<path opacity="0.58" d="M30.9559 466.703H15.7924V469.56H30.9559V466.703Z" fill="#E6E6E6"/>
<path opacity="0.58" d="M51.5882 466.703H36.4247V469.56H51.5882V466.703Z" fill="#E6E6E6"/>
<path opacity="0.26" d="M10.1992 473.287H-4.96429V476.144H10.1992V473.287Z" fill="#E6E6E6"/>
<path opacity="0.37" d="M30.9559 473.287H15.7924V476.144H30.9559V473.287Z" fill="#E6E6E6"/>
<path opacity="0.34" d="M51.5882 473.287H36.4247V476.144H51.5882V473.287Z" fill="#E6E6E6"/>
<path opacity="0.55" d="M10.1992 479.87H-4.96429V482.727H10.1992V479.87Z" fill="#E6E6E6"/>
<path opacity="0.12" d="M30.9559 479.87H15.7924V482.727H30.9559V479.87Z" fill="#E6E6E6"/>
<path opacity="0.6" d="M51.5882 479.87H36.4247V482.727H51.5882V479.87Z" fill="#E6E6E6"/>
<path opacity="0.02" d="M10.1992 486.454H-4.96429V489.311H10.1992V486.454Z" fill="#E6E6E6"/>
<path opacity="0.28" d="M30.9559 486.454H15.7924V489.311H30.9559V486.454Z" fill="#E6E6E6"/>
<path opacity="0.21" d="M51.5882 486.454H36.4247V489.311H51.5882V486.454Z" fill="#E6E6E6"/>
<path opacity="0.57" d="M10.1992 493.038H-4.96429V495.895H10.1992V493.038Z" fill="#E6E6E6"/>
<path opacity="0.38" d="M30.9559 493.038H15.7924V495.895H30.9559V493.038Z" fill="#E6E6E6"/>
<path opacity="0.25" d="M51.5882 493.038H36.4247V495.895H51.5882V493.038Z" fill="#E6E6E6"/>
<path opacity="0.15" d="M10.1992 499.622H-4.96429V502.479H10.1992V499.622Z" fill="#E6E6E6"/>
<path opacity="0.47" d="M30.9559 499.622H15.7924V502.479H30.9559V499.622Z" fill="#E6E6E6"/>
<path opacity="0.3" d="M51.5882 499.622H36.4247V502.479H51.5882V499.622Z" fill="#E6E6E6"/>
<path opacity="0.4" d="M10.1992 506.206H-4.96429V509.063H10.1992V506.206Z" fill="#E6E6E6"/>
<path opacity="0.39" d="M30.9559 506.206H15.7924V509.063H30.9559V506.206Z" fill="#E6E6E6"/>
<path opacity="0.24" d="M51.5882 506.206H36.4247V509.063H51.5882V506.206Z" fill="#E6E6E6"/>
<path opacity="0.46" d="M10.1992 512.789H-4.96429V515.646H10.1992V512.789Z" fill="#E6E6E6"/>
<path opacity="0.22" d="M30.9559 512.789H15.7924V515.646H30.9559V512.789Z" fill="#E6E6E6"/>
<path opacity="0.11" d="M51.5882 512.789H36.4247V515.646H51.5882V512.789Z" fill="#E6E6E6"/>
<path opacity="0.11" d="M30.9559 519.373H15.7924V522.23H30.9559V519.373Z" fill="#E6E6E6"/>
<path opacity="0.02" d="M51.5882 519.373H36.4247V522.23H51.5882V519.373Z" fill="#E6E6E6"/>
<path opacity="0.27" d="M10.1992 525.957H-4.96429V528.814H10.1992V525.957Z" fill="#E6E6E6"/>
<path opacity="0.21" d="M30.9559 525.957H15.7924V528.814H30.9559V525.957Z" fill="#E6E6E6"/>
<path opacity="0.49" d="M51.5882 525.957H36.4247V528.814H51.5882V525.957Z" fill="#E6E6E6"/>
<path opacity="0.6" d="M10.1992 532.541H-4.96429V535.398H10.1992V532.541Z" fill="#E6E6E6"/>
<path opacity="0.31" d="M30.9559 532.541H15.7924V535.398H30.9559V532.541Z" fill="#E6E6E6"/>
<path opacity="0.22" d="M51.5882 532.541H36.4247V535.398H51.5882V532.541Z" fill="#E6E6E6"/>
<path opacity="0.54" d="M10.1992 539.125H-4.96429V541.982H10.1992V539.125Z" fill="#E6E6E6"/>
<path opacity="0.6" d="M30.9559 539.125H15.7924V541.982H30.9559V539.125Z" fill="#E6E6E6"/>
<path opacity="0.08" d="M51.5882 539.125H36.4247V541.982H51.5882V539.125Z" fill="#E6E6E6"/>
<path opacity="0.55" d="M30.9559 545.708H15.7924V548.565H30.9559V545.708Z" fill="#E6E6E6"/>
<path d="M51.5882 545.708H36.4247V548.565H51.5882V545.708Z" fill="#E6E6E6"/>
<path opacity="0.6" d="M11.1935 420.616H10.1992V548.565H11.1935V420.616Z" fill="#E6E6E6"/>
<path opacity="0.6" d="M36.4247 420.616H35.4303V548.565H36.4247V420.616Z" fill="#E6E6E6"/>
<path d="M86.0168 413.411H54.6954V572.789H86.0168V413.411Z" fill="#4D4D4D"/>
<path opacity="0.69" d="M81.4181 420.616H57.8027V423.474H81.4181V420.616Z" fill="#E6E6E6"/>
<path opacity="0.79" d="M81.4181 427.2H57.8027V430.057H81.4181V427.2Z" fill="#E6E6E6"/>
<path opacity="0.19" d="M81.4181 433.784H57.8027V436.641H81.4181V433.784Z" fill="#E6E6E6"/>
<path opacity="0.88" d="M81.4181 440.368H57.8027V443.225H81.4181V440.368Z" fill="#E6E6E6"/>
<path opacity="0.5" d="M81.4181 446.951H57.8027V449.809H81.4181V446.951Z" fill="#E6E6E6"/>
<path opacity="0.25" d="M81.4181 453.535H57.8027V456.392H81.4181V453.535Z" fill="#E6E6E6"/>
<path opacity="0.91" d="M81.4181 460.119H57.8027V462.976H81.4181V460.119Z" fill="#E6E6E6"/>
<path opacity="0.02" d="M81.4181 466.703H57.8027V469.56H81.4181V466.703Z" fill="#E6E6E6"/>
<path opacity="0.53" d="M81.4181 473.287H57.8027V476.144H81.4181V473.287Z" fill="#E6E6E6"/>
<path opacity="0.65" d="M81.4181 479.87H57.8027V482.727H81.4181V479.87Z" fill="#E6E6E6"/>
<path d="M81.4181 486.454H57.8027V489.311H81.4181V486.454Z" fill="#E6E6E6"/>
<path opacity="0.8" d="M81.4181 493.038H57.8027V495.895H81.4181V493.038Z" fill="#E6E6E6"/>
<path opacity="0.82" d="M81.4181 499.622H57.8027V502.479H81.4181V499.622Z" fill="#E6E6E6"/>
<path opacity="0.75" d="M81.4181 506.206H57.8027V509.063H81.4181V506.206Z" fill="#E6E6E6"/>
<path opacity="0.31" d="M81.4181 512.789H57.8027V515.646H81.4181V512.789Z" fill="#E6E6E6"/>
<path opacity="0.22" d="M81.4181 519.373H57.8027V522.23H81.4181V519.373Z" fill="#E6E6E6"/>
<path opacity="0.43" d="M81.4181 525.957H57.8027V528.814H81.4181V525.957Z" fill="#E6E6E6"/>
<path opacity="0.68" d="M81.4181 532.541H57.8027V535.398H81.4181V532.541Z" fill="#E6E6E6"/>
<path opacity="0.38" d="M81.4181 539.125H57.8027V541.982H81.4181V539.125Z" fill="#E6E6E6"/>
<path opacity="0.84" d="M81.4181 545.708H57.8027V548.565H81.4181V545.708Z" fill="#E6E6E6"/>
<path d="M2.99036 404.964V413.411H43.6335V404.964H2.99036ZM12.0636 410.679H7.8377V407.821H12.0636V410.679ZM18.651 410.679H14.5494V407.821H18.651V410.679ZM25.3628 410.679H21.2611V407.821H25.3628V410.679ZM32.0745 410.679H27.8486V407.821H32.0745V410.679ZM38.7862 410.679H34.5603V407.821H38.7862V410.679Z" fill="#333333"/>
<path d="M51.091 407.822H49.9724V410.679H51.091V407.822Z" fill="#333333"/>
<path d="M43.6335 404.964V413.411H62.7744V404.964H43.6335ZM51.091 410.679H46.9894V407.821H51.091V410.679ZM59.9157 410.679H55.8141V407.821H59.9157V410.679Z" fill="#4D4D4D"/>
<path d="M59.7914 407.822H58.6728V410.679H59.7914V407.822Z" fill="#333333"/>
<path d="M63.023 583.596H-21.495L63.023 521.236V583.596Z" fill="#333333"/>
<path d="M312.724 370.058H302.781V399.25H312.724V370.058Z" fill="#4D4D4D"/>
<path d="M302.656 370.058H292.713V399.25H302.656V370.058Z" fill="#333333"/>
<path d="M322.667 370.058H312.724V399.25H322.667V370.058Z" fill="#666666"/>
<path d="M352 419.374H323.91V586.204H352V419.374Z" fill="#666666"/>
<path d="M290.849 419.374H266.488V586.204H290.849V419.374Z" fill="#333333"/>
<path d="M323.91 419.374H290.849V586.204H323.91V419.374Z" fill="#4D4D4D"/>
<path opacity="0.4" d="M273.448 424.343H269.844V583.969H273.448V424.343Z" fill="#E6E6E6"/>
<path opacity="0.4" d="M280.533 424.343H276.928V583.969H280.533V424.343Z" fill="#E6E6E6"/>
<path opacity="0.4" d="M287.617 424.343H284.013V583.969H287.617V424.343Z" fill="#E6E6E6"/>
<path d="M329.503 424.343H325.899V583.969H329.503V424.343Z" fill="#E6E6E6"/>
<path d="M336.588 424.343H332.983V583.969H336.588V424.343Z" fill="#E6E6E6"/>
<path d="M350.136 424.343H346.531V583.969H350.136V424.343Z" fill="#E6E6E6"/>
<path d="M343.548 424.343H339.944V583.969H343.548V424.343Z" fill="#E6E6E6"/>
<path d="M295.075 583.969H319.933V424.343H295.075V583.969ZM298.928 427.076H315.831V581.236H298.928V427.076Z" fill="#E6E6E6"/>
<path d="M302.035 578.627H312.724V429.685H302.035V578.627ZM305.764 433.163H307.131H307.752H309.12V575.149H307.752H307.131H305.764V433.163Z" fill="#E6E6E6"/>
<path d="M307.752 433.163H307.131V575.149H307.752V433.163Z" fill="#E6E6E6"/>
<path d="M320.181 390.182H295.323V419.374H320.181V390.182Z" fill="#4D4D4D"/>
<path d="M320.181 390.182H295.323V419.374H320.181V390.182Z" fill="#4D4D4D"/>
<path d="M345.04 390.182H320.181V419.374H345.04V390.182Z" fill="#666666"/>
<path d="M295.448 390.182H270.589V419.374H295.448V390.182Z" fill="#333333"/>
<path d="M322.792 370.058H292.713L302.781 375.399H312.724L322.792 370.058Z" fill="#808080"/>
<path d="M241.008 442.479H173.021V465.088H241.008V442.479Z" fill="#E6E6E6"/>
<path d="M199.743 442.479H173.021V465.088H199.743V442.479Z" fill="#B3B3B3"/>
<path d="M199.743 465.212H146.92V575.025H199.743V465.212Z" fill="#333333"/>
<path d="M282.273 465.212H199.743V575.025H282.273V465.212Z" fill="#4D4D4D"/>
<path d="M193.28 454.032H152.637V465.212H193.28V454.032Z" fill="#333333"/>
<path d="M269.968 454.032H211.924V465.212H269.968V454.032Z" fill="#4D4D4D"/>
<path d="M222.986 433.908H199.743V442.479H222.986V433.908Z" fill="#E6E6E6"/>
<path d="M211.302 425.213H199.743V433.784H211.302V425.213Z" fill="#4D4D4D"/>
<path d="M199.619 425.213H188.06V433.784H199.619V425.213Z" fill="#333333"/>
<path d="M199.743 433.908H181.97V442.479H199.743V433.908Z" fill="#B3B3B3"/>
<path d="M198.998 425.213L199.743 405.337L200.365 425.213H198.998Z" fill="#333333"/>
<path opacity="0.12" d="M163.575 469.684H159.224V474.032H163.575V469.684Z" fill="white"/>
<path opacity="0.25" d="M169.541 469.684H165.19V474.032H169.541V469.684Z" fill="white"/>
<path opacity="0.36" d="M175.506 469.684H171.156V474.032H175.506V469.684Z" fill="white"/>
<path opacity="0.12" d="M181.472 469.684H177.122V474.032H181.472V469.684Z" fill="white"/>
<path opacity="0.14" d="M187.438 469.684H183.088V474.032H187.438V469.684Z" fill="white"/>
<path opacity="0.28" d="M163.575 475.399H159.224V479.746H163.575V475.399Z" fill="white"/>
<path opacity="0.4" d="M169.541 475.399H165.19V479.746H169.541V475.399Z" fill="white"/>
<path opacity="0.16" d="M175.506 475.399H171.156V479.746H175.506V475.399Z" fill="white"/>
<path opacity="0.17" d="M187.438 475.399H183.088V479.746H187.438V475.399Z" fill="white"/>
<path opacity="0.27" d="M163.575 481.113H159.224V485.461H163.575V481.113Z" fill="white"/>
<path opacity="0.45" d="M169.541 481.113H165.19V485.461H169.541V481.113Z" fill="white"/>
<path opacity="0.45" d="M175.506 481.113H171.156V485.461H175.506V481.113Z" fill="white"/>
<path opacity="0.48" d="M181.472 481.113H177.122V485.461H181.472V481.113Z" fill="white"/>
<path opacity="0.25" d="M187.438 481.113H183.088V485.461H187.438V481.113Z" fill="white"/>
<path opacity="0.28" d="M163.575 486.827H159.224V491.175H163.575V486.827Z" fill="white"/>
<path opacity="0.13" d="M169.541 486.827H165.19V491.175H169.541V486.827Z" fill="white"/>
<path opacity="0.07" d="M175.506 486.827H171.156V491.175H175.506V486.827Z" fill="white"/>
<path opacity="0.39" d="M181.472 486.827H177.122V491.175H181.472V486.827Z" fill="white"/>
<path opacity="0.47" d="M187.438 486.827H183.088V491.175H187.438V486.827Z" fill="white"/>
<path opacity="0.28" d="M163.575 492.541H159.224V496.889H163.575V492.541Z" fill="white"/>
<path opacity="0.2" d="M169.541 492.541H165.19V496.889H169.541V492.541Z" fill="white"/>
<path opacity="0.04" d="M175.506 492.541H171.156V496.889H175.506V492.541Z" fill="white"/>
<path opacity="0.43" d="M181.472 492.541H177.122V496.889H181.472V492.541Z" fill="white"/>
<path opacity="0.48" d="M187.438 492.541H183.088V496.889H187.438V492.541Z" fill="white"/>
<path opacity="0.28" d="M163.575 498.255H159.224V502.603H163.575V498.255Z" fill="white"/>
<path opacity="0.19" d="M169.541 498.255H165.19V502.603H169.541V498.255Z" fill="white"/>
<path opacity="0.01" d="M175.506 498.255H171.156V502.603H175.506V498.255Z" fill="white"/>
<path opacity="0.27" d="M181.472 498.255H177.122V502.603H181.472V498.255Z" fill="white"/>
<path opacity="0.24" d="M187.438 498.255H183.088V502.603H187.438V498.255Z" fill="white"/>
<path opacity="0.07" d="M163.575 504.094H159.224V508.442H163.575V504.094Z" fill="white"/>
<path opacity="0.25" d="M169.541 504.094H165.19V508.442H169.541V504.094Z" fill="white"/>
<path opacity="0.26" d="M175.506 504.094H171.156V508.442H175.506V504.094Z" fill="white"/>
<path opacity="0.39" d="M181.472 504.094H177.122V508.442H181.472V504.094Z" fill="white"/>
<path opacity="0.22" d="M187.438 504.094H183.088V508.442H187.438V504.094Z" fill="white"/>
<path opacity="0.15" d="M163.575 509.808H159.224V514.156H163.575V509.808Z" fill="white"/>
<path opacity="0.23" d="M169.541 509.808H165.19V514.156H169.541V509.808Z" fill="white"/>
<path opacity="0.05" d="M175.506 509.808H171.156V514.156H175.506V509.808Z" fill="white"/>
<path opacity="0.2" d="M181.472 509.808H177.122V514.156H181.472V509.808Z" fill="white"/>
<path opacity="0.31" d="M187.438 509.808H183.088V514.156H187.438V509.808Z" fill="white"/>
<path opacity="0.15" d="M163.575 515.522H159.224V519.87H163.575V515.522Z" fill="white"/>
<path opacity="0.33" d="M169.541 515.522H165.19V519.87H169.541V515.522Z" fill="white"/>
<path opacity="0.46" d="M175.506 515.522H171.156V519.87H175.506V515.522Z" fill="white"/>
<path opacity="0.25" d="M181.472 515.522H177.122V519.87H181.472V515.522Z" fill="white"/>
<path opacity="0.43" d="M187.438 515.522H183.088V519.87H187.438V515.522Z" fill="white"/>
<path opacity="0.4" d="M163.575 521.237H159.224V525.584H163.575V521.237Z" fill="white"/>
<path opacity="0.39" d="M169.541 521.237H165.19V525.584H169.541V521.237Z" fill="white"/>
<path opacity="0.01" d="M175.506 521.237H171.156V525.584H175.506V521.237Z" fill="white"/>
<path opacity="0.12" d="M181.472 521.237H177.122V525.584H181.472V521.237Z" fill="white"/>
<path opacity="0.07" d="M187.438 521.237H183.088V525.584H187.438V521.237Z" fill="white"/>
<path opacity="0.07" d="M163.575 526.951H159.224V531.299H163.575V526.951Z" fill="white"/>
<path opacity="0.02" d="M169.541 526.951H165.19V531.299H169.541V526.951Z" fill="white"/>
<path opacity="0.12" d="M175.506 526.951H171.156V531.299H175.506V526.951Z" fill="white"/>
<path opacity="0.23" d="M181.472 526.951H177.122V531.299H181.472V526.951Z" fill="white"/>
<path opacity="0.26" d="M187.438 526.951H183.088V531.299H187.438V526.951Z" fill="white"/>
<path opacity="0.27" d="M163.575 532.665H159.224V537.013H163.575V532.665Z" fill="white"/>
<path opacity="0.38" d="M169.541 532.665H165.19V537.013H169.541V532.665Z" fill="white"/>
<path opacity="0.05" d="M175.506 532.665H171.156V537.013H175.506V532.665Z" fill="white"/>
<path opacity="0.45" d="M181.472 532.665H177.122V537.013H181.472V532.665Z" fill="white"/>
<path opacity="0.15" d="M187.438 532.665H183.088V537.013H187.438V532.665Z" fill="white"/>
<path opacity="0.06" d="M163.575 538.379H159.224V542.727H163.575V538.379Z" fill="white"/>
<path opacity="0.47" d="M169.541 538.379H165.19V542.727H169.541V538.379Z" fill="white"/>
<path opacity="0.15" d="M175.506 538.379H171.156V542.727H175.506V538.379Z" fill="white"/>
<path opacity="0.44" d="M181.472 538.379H177.122V542.727H181.472V538.379Z" fill="white"/>
<path opacity="0.14" d="M187.438 538.379H183.088V542.727H187.438V538.379Z" fill="white"/>
<path opacity="0.15" d="M163.575 544.094H159.224V548.441H163.575V544.094Z" fill="white"/>
<path opacity="0.43" d="M169.541 544.094H165.19V548.441H169.541V544.094Z" fill="white"/>
<path opacity="0.07" d="M175.506 544.094H171.156V548.441H175.506V544.094Z" fill="white"/>
<path opacity="0.47" d="M181.472 544.094H177.122V548.441H181.472V544.094Z" fill="white"/>
<path opacity="0.11" d="M187.438 544.094H183.088V548.441H187.438V544.094Z" fill="white"/>
<path opacity="0.07" d="M163.575 549.808H159.224V554.155H163.575V549.808Z" fill="white"/>
<path opacity="0.34" d="M169.541 549.808H165.19V554.155H169.541V549.808Z" fill="white"/>
<path opacity="0.5" d="M175.506 549.808H171.156V554.155H175.506V549.808Z" fill="white"/>
<path opacity="0.36" d="M181.472 549.808H177.122V554.155H181.472V549.808Z" fill="white"/>
<path opacity="0.34" d="M187.438 549.808H183.088V554.155H187.438V549.808Z" fill="white"/>
<path opacity="0.47" d="M163.575 555.522H159.224V559.87H163.575V555.522Z" fill="white"/>
<path opacity="0.41" d="M169.541 555.522H165.19V559.87H169.541V555.522Z" fill="white"/>
<path opacity="0.3" d="M175.506 555.522H171.156V559.87H175.506V555.522Z" fill="white"/>
<path opacity="0.33" d="M181.472 555.522H177.122V559.87H181.472V555.522Z" fill="white"/>
<path opacity="0.12" d="M187.438 555.522H183.088V559.87H187.438V555.522Z" fill="white"/>
<path opacity="0.3" d="M214.161 469.684H209.811V474.032H214.161V469.684Z" fill="white"/>
<path opacity="0.72" d="M219.878 469.684H215.528V474.032H219.878V469.684Z" fill="white"/>
<path opacity="0.7" d="M225.72 469.684H221.37V474.032H225.72V469.684Z" fill="white"/>
<path opacity="0.52" d="M231.562 469.684H227.212V474.032H231.562V469.684Z" fill="white"/>
<path opacity="0.2" d="M237.404 469.684H233.053V474.032H237.404V469.684Z" fill="white"/>
<path opacity="0.32" d="M243.121 469.684H238.771V474.032H243.121V469.684Z" fill="white"/>
<path opacity="0.13" d="M248.963 469.684H244.612V474.032H248.963V469.684Z" fill="white"/>
<path opacity="0.38" d="M254.804 469.684H250.454V474.032H254.804V469.684Z" fill="white"/>
<path opacity="0.61" d="M260.522 469.684H256.172V474.032H260.522V469.684Z" fill="white"/>
<path d="M266.363 469.684H262.013V474.032H266.363V469.684Z" fill="white"/>
<path opacity="0.91" d="M272.205 469.684H267.855V474.032H272.205V469.684Z" fill="white"/>
<path opacity="0.66" d="M214.161 475.399H209.811V479.746H214.161V475.399Z" fill="white"/>
<path opacity="0.31" d="M219.878 475.399H215.528V479.746H219.878V475.399Z" fill="white"/>
<path opacity="0.95" d="M225.72 475.399H221.37V479.746H225.72V475.399Z" fill="white"/>
<path opacity="0.7" d="M231.562 475.399H227.212V479.746H231.562V475.399Z" fill="white"/>
<path opacity="0.12" d="M237.404 475.399H233.053V479.746H237.404V475.399Z" fill="white"/>
<path opacity="0.24" d="M243.121 475.399H238.771V479.746H243.121V475.399Z" fill="white"/>
<path opacity="0.66" d="M248.963 475.399H244.612V479.746H248.963V475.399Z" fill="white"/>
<path opacity="0.71" d="M254.804 475.399H250.454V479.746H254.804V475.399Z" fill="white"/>
<path opacity="0.42" d="M260.522 475.399H256.172V479.746H260.522V475.399Z" fill="white"/>
<path opacity="0.09" d="M266.363 475.399H262.013V479.746H266.363V475.399Z" fill="white"/>
<path opacity="0.32" d="M272.205 475.399H267.855V479.746H272.205V475.399Z" fill="white"/>
<path opacity="0.65" d="M214.161 481.113H209.811V485.461H214.161V481.113Z" fill="white"/>
<path d="M219.878 481.113H215.528V485.461H219.878V481.113Z" fill="white"/>
<path d="M225.72 481.113H221.37V485.461H225.72V481.113Z" fill="white"/>
<path opacity="0.71" d="M231.562 481.113H227.212V485.461H231.562V481.113Z" fill="white"/>
<path opacity="0.2" d="M237.404 481.113H233.053V485.461H237.404V481.113Z" fill="white"/>
<path opacity="0.19" d="M243.121 481.113H238.771V485.461H243.121V481.113Z" fill="white"/>
<path opacity="0.62" d="M248.963 481.113H244.612V485.461H248.963V481.113Z" fill="white"/>
<path opacity="0.93" d="M254.804 481.113H250.454V485.461H254.804V481.113Z" fill="white"/>
<path opacity="0.56" d="M260.522 481.113H256.172V485.461H260.522V481.113Z" fill="white"/>
<path opacity="0.57" d="M266.363 481.113H262.013V485.461H266.363V481.113Z" fill="white"/>
<path opacity="0.52" d="M272.205 481.113H267.855V485.461H272.205V481.113Z" fill="white"/>
<path opacity="0.74" d="M214.161 486.827H209.811V491.175H214.161V486.827Z" fill="white"/>
<path opacity="0.56" d="M219.878 486.827H215.528V491.175H219.878V486.827Z" fill="white"/>
<path opacity="0.78" d="M225.72 486.827H221.37V491.175H225.72V486.827Z" fill="white"/>
<path opacity="0.41" d="M231.562 486.827H227.212V491.175H231.562V486.827Z" fill="white"/>
<path opacity="0.14" d="M237.404 486.827H233.053V491.175H237.404V486.827Z" fill="white"/>
<path opacity="0.28" d="M243.121 486.827H238.771V491.175H243.121V486.827Z" fill="white"/>
<path opacity="0.36" d="M248.963 486.827H244.612V491.175H248.963V486.827Z" fill="white"/>
<path opacity="0.14" d="M254.804 486.827H250.454V491.175H254.804V486.827Z" fill="white"/>
<path opacity="0.5" d="M260.522 486.827H256.172V491.175H260.522V486.827Z" fill="white"/>
<path opacity="0.98" d="M266.363 486.827H262.013V491.175H266.363V486.827Z" fill="white"/>
<path opacity="0.59" d="M272.205 486.827H267.855V491.175H272.205V486.827Z" fill="white"/>
<path opacity="0.07" d="M214.161 492.541H209.811V496.889H214.161V492.541Z" fill="white"/>
<path opacity="0.1" d="M219.878 492.541H215.528V496.889H219.878V492.541Z" fill="white"/>
<path opacity="0.88" d="M225.72 492.541H221.37V496.889H225.72V492.541Z" fill="white"/>
<path opacity="0.68" d="M231.562 492.541H227.212V496.889H231.562V492.541Z" fill="white"/>
<path opacity="0.81" d="M237.404 492.541H233.053V496.889H237.404V492.541Z" fill="white"/>
<path opacity="0.62" d="M243.121 492.541H238.771V496.889H243.121V492.541Z" fill="white"/>
<path opacity="0.97" d="M248.963 492.541H244.612V496.889H248.963V492.541Z" fill="white"/>
<path opacity="0.81" d="M254.804 492.541H250.454V496.889H254.804V492.541Z" fill="white"/>
<path opacity="0.79" d="M260.522 492.541H256.172V496.889H260.522V492.541Z" fill="white"/>
<path opacity="0.03" d="M266.363 492.541H262.013V496.889H266.363V492.541Z" fill="white"/>
<path opacity="0.95" d="M272.205 492.541H267.855V496.889H272.205V492.541Z" fill="white"/>
<path opacity="0.62" d="M214.161 498.255H209.811V502.603H214.161V498.255Z" fill="white"/>
<path opacity="0.22" d="M219.878 498.255H215.528V502.603H219.878V498.255Z" fill="white"/>
<path opacity="0.42" d="M225.72 498.255H221.37V502.603H225.72V498.255Z" fill="white"/>
<path opacity="0.56" d="M231.562 498.255H227.212V502.603H231.562V498.255Z" fill="white"/>
<path opacity="0.03" d="M237.404 498.255H233.053V502.603H237.404V498.255Z" fill="white"/>
<path opacity="0.64" d="M243.121 498.255H238.771V502.603H243.121V498.255Z" fill="white"/>
<path opacity="0.82" d="M248.963 498.255H244.612V502.603H248.963V498.255Z" fill="white"/>
<path opacity="0.52" d="M254.804 498.255H250.454V502.603H254.804V498.255Z" fill="white"/>
<path opacity="0.46" d="M260.522 498.255H256.172V502.603H260.522V498.255Z" fill="white"/>
<path opacity="0.27" d="M266.363 498.255H262.013V502.603H266.363V498.255Z" fill="white"/>
<path opacity="0.46" d="M272.205 498.255H267.855V502.603H272.205V498.255Z" fill="white"/>
<path opacity="0.66" d="M214.161 504.094H209.811V508.442H214.161V504.094Z" fill="white"/>
<path opacity="0.7" d="M219.878 504.094H215.528V508.442H219.878V504.094Z" fill="white"/>
<path opacity="0.94" d="M225.72 504.094H221.37V508.442H225.72V504.094Z" fill="white"/>
<path opacity="0.5" d="M231.562 504.094H227.212V508.442H231.562V504.094Z" fill="white"/>
<path opacity="0.12" d="M237.404 504.094H233.053V508.442H237.404V504.094Z" fill="white"/>
<path opacity="0.36" d="M243.121 504.094H238.771V508.442H243.121V504.094Z" fill="white"/>
<path opacity="0.51" d="M248.963 504.094H244.612V508.442H248.963V504.094Z" fill="white"/>
<path opacity="0.37" d="M254.804 504.094H250.454V508.442H254.804V504.094Z" fill="white"/>
<path opacity="0.66" d="M260.522 504.094H256.172V508.442H260.522V504.094Z" fill="white"/>
<path opacity="0.42" d="M266.363 504.094H262.013V508.442H266.363V504.094Z" fill="white"/>
<path opacity="0.5" d="M272.205 504.094H267.855V508.442H272.205V504.094Z" fill="white"/>
<path opacity="0.52" d="M214.161 509.808H209.811V514.156H214.161V509.808Z" fill="white"/>
<path opacity="0.61" d="M219.878 509.808H215.528V514.156H219.878V509.808Z" fill="white"/>
<path opacity="0.84" d="M225.72 509.808H221.37V514.156H225.72V509.808Z" fill="white"/>
<path opacity="0.89" d="M231.562 509.808H227.212V514.156H231.562V509.808Z" fill="white"/>
<path opacity="0.33" d="M237.404 509.808H233.053V514.156H237.404V509.808Z" fill="white"/>
<path opacity="0.25" d="M243.121 509.808H238.771V514.156H243.121V509.808Z" fill="white"/>
<path opacity="0.95" d="M248.963 509.808H244.612V514.156H248.963V509.808Z" fill="white"/>
<path opacity="0.09" d="M254.804 509.808H250.454V514.156H254.804V509.808Z" fill="white"/>
<path opacity="0.44" d="M260.522 509.808H256.172V514.156H260.522V509.808Z" fill="white"/>
<path opacity="0.51" d="M266.363 509.808H262.013V514.156H266.363V509.808Z" fill="white"/>
<path opacity="0.97" d="M272.205 509.808H267.855V514.156H272.205V509.808Z" fill="white"/>
<path opacity="0.26" d="M214.161 515.522H209.811V519.87H214.161V515.522Z" fill="white"/>
<path opacity="0.92" d="M219.878 515.522H215.528V519.87H219.878V515.522Z" fill="white"/>
<path opacity="0.33" d="M225.72 515.522H221.37V519.87H225.72V515.522Z" fill="white"/>
<path opacity="0.23" d="M231.562 515.522H227.212V519.87H231.562V515.522Z" fill="white"/>
<path opacity="0.42" d="M237.404 515.522H233.053V519.87H237.404V515.522Z" fill="white"/>
<path opacity="0.57" d="M243.121 515.522H238.771V519.87H243.121V515.522Z" fill="white"/>
<path opacity="0.73" d="M248.963 515.522H244.612V519.87H248.963V515.522Z" fill="white"/>
<path opacity="0.87" d="M254.804 515.522H250.454V519.87H254.804V515.522Z" fill="white"/>
<path opacity="0.22" d="M260.522 515.522H256.172V519.87H260.522V515.522Z" fill="white"/>
<path opacity="0.89" d="M266.363 515.522H262.013V519.87H266.363V515.522Z" fill="white"/>
<path opacity="0.73" d="M272.205 515.522H267.855V519.87H272.205V515.522Z" fill="white"/>
<path opacity="0.35" d="M214.161 521.237H209.811V525.584H214.161V521.237Z" fill="white"/>
<path opacity="0.81" d="M219.878 521.237H215.528V525.584H219.878V521.237Z" fill="white"/>
<path opacity="0.56" d="M225.72 521.237H221.37V525.584H225.72V521.237Z" fill="white"/>
<path opacity="0.81" d="M231.562 521.237H227.212V525.584H231.562V521.237Z" fill="white"/>
<path opacity="0.87" d="M237.404 521.237H233.053V525.584H237.404V521.237Z" fill="white"/>
<path opacity="0.39" d="M243.121 521.237H238.771V525.584H243.121V521.237Z" fill="white"/>
<path opacity="0.31" d="M248.963 521.237H244.612V525.584H248.963V521.237Z" fill="white"/>
<path opacity="0.98" d="M254.804 521.237H250.454V525.584H254.804V521.237Z" fill="white"/>
<path opacity="0.17" d="M260.522 521.237H256.172V525.584H260.522V521.237Z" fill="white"/>
<path opacity="0.06" d="M266.363 521.237H262.013V525.584H266.363V521.237Z" fill="white"/>
<path opacity="0.57" d="M272.205 521.237H267.855V525.584H272.205V521.237Z" fill="white"/>
<path opacity="0.67" d="M214.161 526.951H209.811V531.299H214.161V526.951Z" fill="white"/>
<path opacity="0.83" d="M219.878 526.951H215.528V531.299H219.878V526.951Z" fill="white"/>
<path opacity="0.99" d="M225.72 526.951H221.37V531.299H225.72V526.951Z" fill="white"/>
<path opacity="0.62" d="M231.562 526.951H227.212V531.299H231.562V526.951Z" fill="white"/>
<path opacity="0.87" d="M237.404 526.951H233.053V531.299H237.404V526.951Z" fill="white"/>
<path opacity="0.14" d="M243.121 526.951H238.771V531.299H243.121V526.951Z" fill="white"/>
<path opacity="0.12" d="M248.963 526.951H244.612V531.299H248.963V526.951Z" fill="white"/>
<path opacity="0.11" d="M254.804 526.951H250.454V531.299H254.804V526.951Z" fill="white"/>
<path opacity="0.39" d="M260.522 526.951H256.172V531.299H260.522V526.951Z" fill="white"/>
<path opacity="0.58" d="M266.363 526.951H262.013V531.299H266.363V526.951Z" fill="white"/>
<path opacity="0.54" d="M272.205 526.951H267.855V531.299H272.205V526.951Z" fill="white"/>
<path opacity="0.99" d="M214.161 532.665H209.811V537.013H214.161V532.665Z" fill="white"/>
<path opacity="0.28" d="M219.878 532.665H215.528V537.013H219.878V532.665Z" fill="white"/>
<path opacity="0.78" d="M225.72 532.665H221.37V537.013H225.72V532.665Z" fill="white"/>
<path opacity="0.65" d="M231.562 532.665H227.212V537.013H231.562V532.665Z" fill="white"/>
<path opacity="0.32" d="M237.404 532.665H233.053V537.013H237.404V532.665Z" fill="white"/>
<path opacity="0.55" d="M243.121 532.665H238.771V537.013H243.121V532.665Z" fill="white"/>
<path opacity="0.4" d="M248.963 532.665H244.612V537.013H248.963V532.665Z" fill="white"/>
<path opacity="0.22" d="M254.804 532.665H250.454V537.013H254.804V532.665Z" fill="white"/>
<path opacity="0.87" d="M260.522 532.665H256.172V537.013H260.522V532.665Z" fill="white"/>
<path opacity="0.02" d="M266.363 532.665H262.013V537.013H266.363V532.665Z" fill="white"/>
<path opacity="0.39" d="M272.205 532.665H267.855V537.013H272.205V532.665Z" fill="white"/>
<path opacity="0.89" d="M214.161 538.379H209.811V542.727H214.161V538.379Z" fill="white"/>
<path opacity="0.97" d="M219.878 538.379H215.528V542.727H219.878V538.379Z" fill="white"/>
<path opacity="0.79" d="M225.72 538.379H221.37V542.727H225.72V538.379Z" fill="white"/>
<path opacity="0.41" d="M231.562 538.379H227.212V542.727H231.562V538.379Z" fill="white"/>
<path opacity="0.13" d="M237.404 538.379H233.053V542.727H237.404V538.379Z" fill="white"/>
<path opacity="0.9" d="M243.121 538.379H238.771V542.727H243.121V538.379Z" fill="white"/>
<path opacity="0.98" d="M248.963 538.379H244.612V542.727H248.963V538.379Z" fill="white"/>
<path opacity="0.67" d="M254.804 538.379H250.454V542.727H254.804V538.379Z" fill="white"/>
<path opacity="0.65" d="M260.522 538.379H256.172V542.727H260.522V538.379Z" fill="white"/>
<path opacity="0.89" d="M266.363 538.379H262.013V542.727H266.363V538.379Z" fill="white"/>
<path opacity="0.98" d="M272.205 538.379H267.855V542.727H272.205V538.379Z" fill="white"/>
<path opacity="0.29" d="M214.161 544.094H209.811V548.441H214.161V544.094Z" fill="white"/>
<path opacity="0.74" d="M219.878 544.094H215.528V548.441H219.878V544.094Z" fill="white"/>
<path opacity="0.64" d="M225.72 544.094H221.37V548.441H225.72V544.094Z" fill="white"/>
<path opacity="0.65" d="M231.562 544.094H227.212V548.441H231.562V544.094Z" fill="white"/>
<path opacity="0.07" d="M237.404 544.094H233.053V548.441H237.404V544.094Z" fill="white"/>
<path opacity="0.16" d="M243.121 544.094H238.771V548.441H243.121V544.094Z" fill="white"/>
<path opacity="0.84" d="M248.963 544.094H244.612V548.441H248.963V544.094Z" fill="white"/>
<path opacity="0.88" d="M254.804 544.094H250.454V548.441H254.804V544.094Z" fill="white"/>
<path opacity="0.57" d="M260.522 544.094H256.172V548.441H260.522V544.094Z" fill="white"/>
<path opacity="0.31" d="M266.363 544.094H262.013V548.441H266.363V544.094Z" fill="white"/>
<path opacity="0.03" d="M272.205 544.094H267.855V548.441H272.205V544.094Z" fill="white"/>
<path opacity="0.3" d="M214.161 549.808H209.811V554.155H214.161V549.808Z" fill="white"/>
<path opacity="0.59" d="M219.878 549.808H215.528V554.155H219.878V549.808Z" fill="white"/>
<path opacity="0.93" d="M225.72 549.808H221.37V554.155H225.72V549.808Z" fill="white"/>
<path opacity="0.06" d="M231.562 549.808H227.212V554.155H231.562V549.808Z" fill="white"/>
<path opacity="0.74" d="M237.404 549.808H233.053V554.155H237.404V549.808Z" fill="white"/>
<path opacity="0.22" d="M243.121 549.808H238.771V554.155H243.121V549.808Z" fill="white"/>
<path opacity="0.51" d="M248.963 549.808H244.612V554.155H248.963V549.808Z" fill="white"/>
<path opacity="0.7" d="M254.804 549.808H250.454V554.155H254.804V549.808Z" fill="white"/>
<path opacity="0.47" d="M260.522 549.808H256.172V554.155H260.522V549.808Z" fill="white"/>
<path opacity="0.08" d="M266.363 549.808H262.013V554.155H266.363V549.808Z" fill="white"/>
<path opacity="0.93" d="M272.205 549.808H267.855V554.155H272.205V549.808Z" fill="white"/>
<path opacity="0.81" d="M214.161 555.522H209.811V559.87H214.161V555.522Z" fill="white"/>
<path opacity="0.9" d="M219.878 555.522H215.528V559.87H219.878V555.522Z" fill="white"/>
<path opacity="0.55" d="M225.72 555.522H221.37V559.87H225.72V555.522Z" fill="white"/>
<path opacity="0.14" d="M231.562 555.522H227.212V559.87H231.562V555.522Z" fill="white"/>
<path opacity="0.66" d="M237.404 555.522H233.053V559.87H237.404V555.522Z" fill="white"/>
<path opacity="0.92" d="M243.121 555.522H238.771V559.87H243.121V555.522Z" fill="white"/>
<path opacity="0.4" d="M248.963 555.522H244.612V559.87H248.963V555.522Z" fill="white"/>
<path opacity="0.6" d="M254.804 555.522H250.454V559.87H254.804V555.522Z" fill="white"/>
<path opacity="0.99" d="M260.522 555.522H256.172V559.87H260.522V555.522Z" fill="white"/>
<path opacity="0.68" d="M266.363 555.522H262.013V559.87H266.363V555.522Z" fill="white"/>
<path opacity="0.01" d="M272.205 555.522H267.855V559.87H272.205V555.522Z" fill="white"/>
<path d="M140.705 441.734H99.6889V570.18H140.705V441.734Z" fill="#333333"/>
<path d="M118.333 435.274H99.6889V442.479H118.333V435.274Z" fill="#333333"/>
<path d="M110.502 431.051H99.6889V435.275H110.502V431.051Z" fill="#333333"/>
<path opacity="0.25" d="M123.429 450.802H116.717V457.51H123.429V450.802Z" fill="white"/>
<path opacity="0.15" d="M123.429 467.324H116.717V474.032H123.429V467.324Z" fill="white"/>
<path opacity="0.19" d="M123.429 500.243H116.717V506.951H123.429V500.243Z" fill="white"/>
<path opacity="0.17" d="M123.429 516.64H116.717V523.348H123.429V516.64Z" fill="white"/>
<path opacity="0.22" d="M123.429 533.037H116.717V539.745H123.429V533.037Z" fill="white"/>
<path d="M123.429 549.559H116.717V556.267H123.429V549.559Z" fill="white"/>
<path d="M110.254 513.286H71.8477V524.591H110.254V513.286Z" fill="#333333"/>
<path d="M129.394 513.286H110.254V524.591H129.394V513.286Z" fill="#4D4D4D"/>
<path d="M71.8477 513.286L83.7796 507.572L110.254 513.286H71.8477Z" fill="#333333"/>
<path d="M83.7797 507.572L110.254 513.286H129.394L83.7797 507.572Z" fill="#4D4D4D"/>
<path d="M119.203 521.236H63.0229V572.664H119.203V521.236Z" fill="#333333"/>
<path d="M137.846 521.236H119.203V572.664H137.846V521.236Z" fill="#4D4D4D"/>
<path opacity="0.81" d="M133.496 524.839H123.429V528.565H133.496V524.839Z" fill="white"/>
<path opacity="0.76" d="M133.496 531.671H123.429V535.398H133.496V531.671Z" fill="white"/>
<path opacity="0.32" d="M133.496 538.503H123.429V542.23H133.496V538.503Z" fill="white"/>
<path opacity="0.49" d="M133.496 545.46H123.429V549.186H133.496V545.46Z" fill="white"/>
<path opacity="0.1" d="M82.0396 524.839H71.972V528.565H82.0396V524.839Z" fill="white"/>
<path opacity="0.04" d="M96.0845 524.839H86.0168V528.565H96.0845V524.839Z" fill="white"/>
<path opacity="0.07" d="M110.254 524.839H100.186V528.565H110.254V524.839Z" fill="white"/>
<path opacity="0.06" d="M82.0396 531.671H71.972V535.398H82.0396V531.671Z" fill="white"/>
<path opacity="0.44" d="M96.0845 531.671H86.0168V535.398H96.0845V531.671Z" fill="white"/>
<path opacity="0.24" d="M110.254 531.671H100.186V535.398H110.254V531.671Z" fill="white"/>
<path opacity="0.55" d="M82.0396 538.503H71.972V542.23H82.0396V538.503Z" fill="white"/>
<path opacity="0.02" d="M96.0845 538.503H86.0168V542.23H96.0845V538.503Z" fill="white"/>
<path opacity="0.14" d="M110.254 538.503H100.186V542.23H110.254V538.503Z" fill="white"/>
<path opacity="0.43" d="M82.0396 545.46H71.972V549.186H82.0396V545.46Z" fill="white"/>
<path opacity="0.41" d="M96.0845 545.46H86.0168V549.186H96.0845V545.46Z" fill="white"/>
<path opacity="0.46" d="M110.254 545.46H100.186V549.186H110.254V545.46Z" fill="white"/>
<path opacity="0.45" d="M82.0396 552.292H71.972V556.019H82.0396V552.292Z" fill="white"/>
<path opacity="0.33" d="M96.0845 552.292H86.0168V556.019H96.0845V552.292Z" fill="white"/>
<path opacity="0.05" d="M110.254 552.292H100.186V556.019H110.254V552.292Z" fill="white"/>
<path d="M30.9559 562.851C30.9559 566.081 28.3457 568.814 25.2385 568.814C22.1312 568.814 19.5211 566.205 19.5211 562.851C19.5211 559.621 22.1312 556.888 25.2385 556.888C28.3457 556.888 30.9559 559.621 30.9559 562.851Z" fill="#333333"/>
<line x1="102" y1="156.5" x2="172" y2="156.5" stroke="black"/>
</g>
<defs>
<clipPath id="clip0">
<rect width="811" height="559" fill="white" transform="translate(-459)"/>
</clipPath>
</defs>
</svg>
