<?xml version="1.0" encoding="UTF-8"?>
<!DOCTYPE svg PUBLIC "-//W3C//DTD SVG 1.1//EN" "http://www.w3.org/Graphics/SVG/1.1/DTD/svg11.dtd">
<!-- Creator: CorelDRAW 2018 -->
<svg xmlns="http://www.w3.org/2000/svg" xml:space="preserve" width="30.1621mm" height="7.4082mm" version="1.1" style="shape-rendering:geometricPrecision; text-rendering:geometricPrecision; image-rendering:optimizeQuality; fill-rule:evenodd; clip-rule:evenodd"
viewBox="0 0 2839.91 697.52"
 xmlns:xlink="http://www.w3.org/1999/xlink">
 <defs>
  <style type="text/css">
   <![CDATA[
    .fil0 {fill:#E3B873}
   ]]>
  </style>
 </defs>
 <g id="Layer_x0020_1">
  <metadata id="CorelCorpID_0Corel-Layer"/>
  <path class="fil0" d="M19.23 323.85l758.72 0c10.63,-0.01 19.24,8.6 19.24,19.22l-0.02 0c0.02,10.61 -8.59,19.21 -19.21,19.21l-758.73 0.01c-10.61,-0.01 -19.22,-8.61 -19.22,-19.22l-0.01 0c0.01,-10.62 8.62,-19.23 19.24,-19.23l-0.01 0.01zm1741.49 234.15l-209.25 -209.25 82.55 -82.54 0 0 48.82 -48.83 0.01 0 70.9 -70.92c19.76,-19.76 19.76,-52.31 0,-72.08l-59.28 -59.29c-9.29,-9.3 -22.09,-15.11 -36.03,-15.11 -13.95,0 -26.74,5.81 -36.04,15.11l-70.92 70.92 -48.83 48.82 -82.54 82.55 -206.93 -206.93c-12.8,-12.79 -36.04,-12.79 -48.83,0l-82.55 82.55c-13.94,12.79 -13.94,34.87 0,48.82l24.41 24.41 66.27 66.27 65.1 65.1c0,0 0,0 0.01,0.01l51.14 51.14 -186.62 186.61c-3.47,1.53 -5.35,4.68 -6.36,8.69l-24.41 139.5c0,4.65 1.17,8.14 3.48,10.47 2.33,2.32 4.65,3.48 8.14,3.48 1.16,0 1.16,0 2.33,0l134.11 -24.79c0.93,0.24 1.93,0.38 3.06,0.38 3.49,0 6.98,-1.16 8.14,-3.48l189.5 -189.5 15.11 15.11c0,0 0,0 0,0l0 0 32.55 32.55c0,0 0,0 0,0l0 0 161.6 161.6c5.81,5.81 12.79,8.13 19.76,8.13 6.98,0 13.95,-2.33 18.6,-8.13l92.99 -93.01c10.46,-10.46 10.46,-27.9 0,-38.37zm-538.25 86.03l-40.67 -40.67 386.52 -385.4 40.12 40.13 -385.97 385.95zm416.19 -612.66c10.47,-10.46 29.07,-10.46 39.54,0l59.29 59.3c10.45,10.46 10.45,29.06 0,39.53l-62.78 62.77 -98.82 -98.82 62.77 -62.78zm-79.04 79.06l49.4 49.4 49.41 49.41 -32.55 32.55 -98.82 -98.82 32.56 -32.55zm-264.49 212.16l25 -25c4.65,-4.64 4.65,-11.62 0,-16.27 -4.65,-4.65 -11.62,-4.65 -16.28,0l-24.99 24.99 -16.86 -16.85 40.69 -40.68c4.65,-4.65 4.65,-11.63 0,-16.28 -4.65,-4.65 -11.62,-4.65 -16.28,0l-40.68 40.69 -16.28 -16.28 24.41 -24.41c4.65,-4.65 4.65,-11.63 0,-16.28 -4.65,-4.65 -11.63,-4.64 -16.28,0l-24.4 24.41 -16.28 -16.27 40.68 -40.69c4.65,-4.65 4.65,-11.63 0,-16.28 -4.65,-4.65 -11.62,-4.64 -16.27,0l-40.69 40.69 -17.44 -17.44 24.41 -24.41c4.65,-4.65 4.65,-11.62 0,-16.27 -4.65,-4.65 -11.62,-4.65 -16.27,0l-24.41 24.41 -16.28 -16.28 40.69 -40.69c4.65,-4.65 4.65,-11.62 0,-16.27 -4.65,-4.65 -11.63,-4.65 -16.28,0l-40.68 40.68 -16.28 -16.27c-4.65,-4.65 -4.65,-11.63 0,-16.28l82.54 -82.54c2.33,-2.33 4.65,-3.49 8.14,-3.49 2.33,0 5.81,1.17 8.13,3.49l206.93 206.93 -98.82 98.82 -9.89 -9.89zm215.66 -162.17l40.67 40.67 -386.52 385.4 -40.12 -40.12 385.97 -385.96zm-395.27 409.21l38.14 38.14c0.58,1.33 1.42,2.59 2.55,3.71l42.02 42.02 -100.15 17.27 17.44 -101.14zm628.94 10.46l-93.01 93.01c-1.17,1.16 -4.65,1.16 -5.82,0l-120.32 -120.32 41.27 -41.28c4.65,-4.64 4.65,-11.62 0,-16.27 -4.65,-4.65 -11.63,-4.65 -16.28,0l-41.27 41.27 -16.85 -16.85 24.41 -24.41c4.65,-4.65 4.65,-11.63 0,-16.28 -4.65,-4.65 -11.63,-4.65 -16.28,0l-24.41 24.41 -16.27 -16.28 40.68 -40.68c4.65,-4.65 4.65,-11.63 0,-16.28 -4.65,-4.65 -11.63,-4.65 -16.28,0l-40.68 40.69 -6.98 -6.98 98.82 -98.82 209.26 209.26c1.17,1.16 1.17,4.65 0.01,5.81zm317.51 -256.24l758.72 0c10.62,-0.01 19.23,8.6 19.23,19.22l0 0c0,10.61 -8.61,19.21 -19.23,19.21l-758.72 0.01c-10.62,-0.01 -19.23,-8.61 -19.23,-19.22l0 0c0,-10.62 8.61,-19.23 19.23,-19.23l0 0.01z"/>
 </g>
</svg>
