<?xml version="1.0" encoding="UTF-8"?>
<!DOCTYPE svg PUBLIC "-//W3C//DTD SVG 1.1//EN" "http://www.w3.org/Graphics/SVG/1.1/DTD/svg11.dtd">
<!-- Creator: CorelDRAW 2018 -->
<svg xmlns="http://www.w3.org/2000/svg" xml:space="preserve" width="10.6363mm" height="8.7943mm" version="1.1" style="shape-rendering:geometricPrecision; text-rendering:geometricPrecision; image-rendering:optimizeQuality; fill-rule:evenodd; clip-rule:evenodd"
viewBox="0 0 2874.7 2376.86"
 xmlns:xlink="http://www.w3.org/1999/xlink">
 <defs>
  <style type="text/css">
   <![CDATA[
    .fil0 {fill:white}
   ]]>
  </style>
 </defs>
 <g id="Layer_x0020_1">
  <metadata id="CorelCorpID_0Corel-Layer"/>
  <path class="fil0" d="M1424.36 1720.39c9.54,-9.32 22.78,-15.11 37.27,-15.11 14.49,0 27.7,5.78 37.24,15.11 9.51,9.3 15.46,22.22 15.46,36.46l0 94.73c0,14.24 -5.95,27.16 -15.46,36.46 -9.54,9.32 -22.76,15.11 -37.24,15.11 -14.49,0 -27.73,-5.78 -37.27,-15.11 -9.51,-9.3 -15.46,-22.22 -15.46,-36.46l0 -94.73c0,-14.24 5.95,-27.16 15.46,-36.46zm-119.78 -497.6c27.95,10.76 54.87,23.65 78.38,39.59 24.16,16.35 44.87,36.05 59.46,60.08 14.7,24.14 23.35,52.68 23.35,86.51 0,23.57 -6.59,46 -18.65,66.49 -12.41,21.22 -30.76,40.43 -53.54,56.89 -22.14,15.95 -48.68,29.46 -78.35,39.73 -28.08,9.73 -59.24,16.7 -92.41,20.3 -0.35,13.73 -6.24,26.14 -15.46,35.14 -9.54,9.3 -22.76,15.11 -37.22,15.11 -14.49,0 -27.7,-5.78 -37.22,-15.08 -9.27,-9.03 -15.11,-21.43 -15.46,-35.16 -33.16,-3.59 -64.32,-10.57 -92.43,-20.3 -29.68,-10.27 -56.19,-23.78 -78.32,-39.73 -22.81,-16.43 -41.16,-35.68 -53.57,-56.89 -12.03,-20.51 -18.65,-42.92 -18.65,-66.49 0,-14.24 5.97,-27.19 15.49,-36.49 9.54,-9.3 22.76,-15.11 37.24,-15.11 14.49,0 27.7,5.81 37.24,15.11 9.51,9.3 15.49,22.24 15.49,36.49 0,7.43 3.38,15.49 9.81,23.49 6.57,8.19 16.38,16.38 29.08,23.97 12.84,7.68 28.57,14.65 46.41,20.3 15.76,5.03 33.32,9.08 52.19,11.73l0 -213.41c-26.81,-7.46 -54.81,-15.92 -81.73,-26.3 -27.95,-10.76 -54.89,-23.68 -78.41,-39.59 -24.14,-16.35 -44.87,-36.05 -59.46,-60.08 -14.7,-24.11 -23.35,-52.62 -23.35,-86.46 0,-23.59 6.65,-46 18.65,-66.51 12.41,-21.19 30.73,-40.41 53.57,-56.87 22.11,-15.95 48.62,-29.43 78.32,-39.76 28.08,-9.73 59.24,-16.7 92.43,-20.3 0.35,-13.73 6.19,-26.14 15.46,-35.16 9.51,-9.3 22.73,-15.08 37.22,-15.08 14.46,0 27.68,5.81 37.22,15.11 9.22,9 15.11,21.41 15.46,35.14 33.16,3.59 64.32,10.57 92.41,20.3 29.7,10.32 56.22,23.81 78.35,39.76 22.78,16.43 41.14,35.68 53.54,56.87 12.05,20.51 18.65,42.92 18.65,66.51 0,14.24 -5.95,27.16 -15.46,36.46 -9.57,9.3 -22.78,15.11 -37.27,15.11 -14.49,0 -27.7,-5.78 -37.22,-15.08 -9.54,-9.32 -15.49,-22.24 -15.49,-36.49 0,-7.43 -3.38,-15.51 -9.81,-23.51 -6.57,-8.16 -16.41,-16.38 -29.11,-23.97 -12.81,-7.65 -28.51,-14.65 -46.35,-20.3 -15.76,-5 -33.32,-9.05 -52.22,-11.73l0 213.38c26.84,7.46 54.84,15.95 81.73,26.3zm-187.14 -55.81l0 -183.87c-18.89,2.68 -36.49,6.73 -52.24,11.76 -17.84,5.65 -33.51,12.62 -46.35,20.27 -12.7,7.59 -22.51,15.78 -29.08,23.97 -6.43,8 -9.81,16.08 -9.81,23.51 0,10.95 2.22,20.89 7.08,30.14 4.92,9.27 12.73,18.03 23.92,26.51 11.19,8.49 25.65,16.65 43.87,24.68 17.35,7.65 38.11,15.3 62.62,23.03zm157.57 309.76c17.89,-5.65 33.57,-12.62 46.41,-20.3 12.7,-7.59 22.54,-15.78 29.11,-23.97 6.43,-8 9.81,-16.08 9.81,-23.49 0,-10.95 -2.22,-20.92 -7.11,-30.14 -4.92,-9.32 -12.76,-18.11 -23.89,-26.54 -11.11,-8.46 -25.65,-16.65 -43.87,-24.7 -17.35,-7.65 -38.11,-15.27 -62.62,-23l0 183.87c18.84,-2.65 36.41,-6.7 52.16,-11.73zm796.44 -336.25c-11.24,4.97 -24.73,5.54 -40.35,1.62l-1.19 -0.41c-13.19,-5.03 -23.24,-14.81 -28.73,-26.54 -5.46,-11.73 -6.49,-25.59 -1.73,-38.7l0.3 -0.84c14.65,-38.35 41.43,-70.46 75.22,-92.89 33.81,-22.46 74.76,-35.35 117.68,-35.35 42.27,0 83.57,12.7 117.87,35.49 33.27,22.11 60.11,53.84 75,92.76l0.11 0.35c2,7.41 2.81,14.32 2.65,20.57 -0.32,13.03 -5.03,23.54 -11.89,31.32 -6.84,7.78 -16,12.97 -25.3,15.51 -4.92,1.35 -10.05,2 -14.92,1.86 -10.78,0.03 -21.32,-3.27 -30.08,-9.19 -8.49,-5.78 -15.43,-14.11 -19.3,-24.3 -6.95,-18.22 -19.92,-33.57 -36.41,-44.3 -16.46,-10.7 -36.57,-16.92 -57.76,-16.92 -21.19,0 -41.3,6.22 -57.76,16.92 -16.46,10.73 -29.43,26.08 -36.38,44.3 -6.68,14.14 -15.7,23.68 -27.03,28.73zm511.44 -319.49c34.87,70.19 60.97,144.57 77.22,221.11l113.27 0c13.51,0 26.62,2.59 38.76,7.46 12.08,4.86 23.27,12.14 32.81,21.46 9.57,9.32 17.05,20.22 22.05,32.08 5.05,11.86 7.7,24.73 7.7,37.95l0 378.95c0,27.27 -11.43,52.08 -29.76,69.95 -18.32,17.87 -43.68,29 -71.54,29l-175.6 0c-60.3,133.46 -151.27,251.46 -264.89,344.89 -111.41,91.6 -244.73,159.65 -392.22,195.35l-22.43 102c-7.35,33.54 -26.49,62.49 -52.46,82.97 -26,20.49 -59.03,32.68 -94.05,32.68l-212.95 0c-41.22,0 -78.76,-16.41 -105.89,-42.89 -27.16,-26.49 -44,-63.08 -44,-103.43l0 -43.16 -433.08 0c-24.14,0 -48.49,-0.92 -72.84,-2.68 -23.03,-1.65 -46.03,-4.14 -68.78,-7.35l0 53.19c0,40.35 -16.84,76.95 -44,103.43 -27.11,26.49 -64.62,42.89 -105.89,42.89l-193.87 0c-24.24,0 -47.89,-5.78 -68.87,-16.35 -20.97,-10.57 -39.43,-26.03 -53.38,-45.3 -53.7,-74.24 -183.16,-269.06 -273.27,-533.22 -54.7,-160.38 -94.92,-346.3 -94.92,-546.22 0,-118.33 22.46,-234.25 65.24,-342.46 42.32,-107.11 104.68,-206.76 184.95,-293.73l2.43 -2.65c77.08,-82.92 167.57,-151.14 266.95,-202.46 98.87,-51.05 206.65,-85.38 318.84,-100.81 20.24,-71.38 64.14,-133.3 122.81,-177.16 57.95,-43.32 130.49,-69.14 208.95,-69.14 76.68,0 147.65,24.65 204.92,66.24 57.97,42.08 102.03,101.68 123.87,170.6l152.87 0 0 -232.62c0,-7.46 1.68,-14.81 4.78,-21.46 3.11,-6.62 7.73,-12.68 13.49,-17.57 5.73,-4.84 12.51,-8.43 19.65,-10.43 7.14,-2.03 14.76,-2.62 22.24,-1.59 2.11,0.3 27.27,4 63.62,16.68 36.3,12.65 84,34.38 131.46,70.76 45.19,34.59 80.22,74.57 107.03,116.97 30.7,48.51 50.84,100.41 63.54,151.43 71.57,28.92 139.46,66.24 201.97,110.73 62.89,44.76 120.51,96.97 171,155.38 52.51,60.68 96.97,127.57 132.27,198.54zm54.35 694.79l132.03 0 0 -370.52 -112.78 0c-23.81,0 -46.24,-8.43 -63.81,-22.57 -17.57,-14.14 -30.43,-34.19 -35.27,-57.32 -14.41,-68.89 -37.84,-135.97 -69.35,-199.33 -31.51,-63.32 -71.14,-122.97 -117.87,-177 -38.54,-44.51 -81.76,-85.05 -128.57,-120.84 -45.41,-34.7 -94.33,-65.05 -145.73,-90.38l1 21.19 0.46 26.22c0,14.24 -5.92,27.19 -15.49,36.51 -9.51,9.3 -22.73,15.08 -37.22,15.08 -14.49,0 -27.7,-5.81 -37.24,-15.11 -9.51,-9.3 -15.49,-22.24 -15.49,-36.49 0,-70.68 -10.03,-129.6 -26.35,-178.65 -16.27,-48.95 -38.92,-88.27 -64.14,-119.68 -24.24,-30.24 -51,-53.38 -76.92,-70.89 -24,-16.22 -47.3,-27.76 -67.24,-35.76l0 357.6c0,14.24 -5.97,27.19 -15.49,36.49 -9.54,9.3 -22.76,15.11 -37.22,15.11 -14.49,0 -27.7,-5.81 -37.24,-15.11 -9.51,-9.3 -15.49,-22.24 -15.49,-36.49l0 -90.51 -137.54 0c-0.19,14.84 -1.38,29.62 -3.54,44.11 -2.11,14.19 -5.19,28.32 -9.19,42.22l8.65 0c14.49,0 27.73,5.78 37.27,15.11 9.51,9.3 15.46,22.22 15.46,36.46 0,14.24 -5.97,27.19 -15.49,36.49 -9.54,9.3 -22.76,15.11 -37.24,15.11l-680.14 0c-14.49,0 -27.7,-5.78 -37.22,-15.08 -9.57,-9.32 -15.49,-22.27 -15.49,-36.51 0,-14.24 5.92,-27.16 15.49,-36.49 9.54,-9.3 22.76,-15.08 37.22,-15.08l8.62 0c-3.38,-11.84 -6.11,-23.95 -8.16,-36.22 -2.05,-12.41 -3.46,-25.03 -4.11,-37.65 -94.62,15.97 -185.38,47.08 -268.76,91.65 -83.19,44.46 -159.22,102.46 -224.6,172.24l-2.43 2.59c-72.6,78.08 -128.95,167.76 -167.08,264.19 -38.11,96.43 -58.11,199.79 -58.11,305.27 0,188.46 38.08,363.92 89.84,515.3 85.35,249.54 208,434.14 258.95,504.54 4.14,5.76 9.54,10.3 15.68,13.38 6.16,3.03 13.16,4.7 20.54,4.7l193.87 0c12.3,0 23.43,-4.86 31.46,-12.68 8,-7.81 12.97,-18.62 12.97,-30.49l0 -473.71c0,-14.24 5.95,-27.16 15.46,-36.46 9.59,-9.32 22.78,-15.11 37.27,-15.11 14.49,0 27.7,5.81 37.24,15.08 9.54,9.32 15.49,22.24 15.49,36.49l0 316.16c22.73,3.59 45.84,6.41 69.14,8.3 23.92,1.92 48.14,2.92 72.46,2.92l433.11 0 0 -43.16c0,-14.24 5.95,-27.16 15.46,-36.46 9.54,-9.32 22.78,-15.11 37.27,-15.11 14.49,0 27.7,5.78 37.24,15.11 9.51,9.3 15.46,22.22 15.46,36.46l0 189.49c0,11.86 4.97,22.68 13,30.49 8,7.81 19.16,12.68 31.46,12.68l212.95 0c10.43,0 20.27,-3.62 27.95,-9.68 7.7,-6.05 13.38,-14.62 15.54,-24.46l108.49 -493.54c3.03,-13.92 11.59,-25.32 22.92,-32.49 11.27,-7.11 25.43,-10.05 39.59,-7.08l0.68 0.14c13.89,3.05 25.3,11.35 32.51,22.22 7.22,10.89 10.3,24.54 7.43,38.3l-61.16 278.27c171.33,-52.38 318.41,-154.38 425.03,-287.57 107.08,-133.78 173.57,-299.14 183.03,-477.33 0.73,-14.24 7.38,-26.84 17.35,-35.62 10,-8.81 23.41,-13.86 37.81,-13.19l0.38 0c14.38,0.76 27.24,7.22 36.16,16.89 9,9.68 14.19,22.76 13.54,36.89l0 0.38c-2.11,40.16 -6.86,79.81 -14,118.6 -6.97,37.89 -16.3,75.11 -27.76,111.38zm-1298.31 -1297.04c-43.19,-42.14 -102.92,-68.24 -168.79,-68.24 -65.87,0 -125.62,26.11 -168.81,68.24 -43.19,42.08 -69.97,100.3 -69.97,164.41 0,16 1.7,31.87 5,47.27 3.14,14.73 7.81,29.24 13.89,43.24l439.79 0c6.05,-13.97 10.73,-28.54 13.89,-43.27 3.27,-15.35 4.97,-31.24 4.97,-47.24 0,-64.11 -26.78,-122.33 -69.97,-164.41z"/>
 </g>
</svg>
