<?xml version="1.0" encoding="UTF-8"?>
<!DOCTYPE svg PUBLIC "-//W3C//DTD SVG 1.1//EN" "http://www.w3.org/Graphics/SVG/1.1/DTD/svg11.dtd">
<!-- Creator: CorelDRAW 2018 -->
<svg xmlns="http://www.w3.org/2000/svg" xml:space="preserve" width="11.6415mm" height="10.5116mm" version="1.1" style="shape-rendering:geometricPrecision; text-rendering:geometricPrecision; image-rendering:optimizeQuality; fill-rule:evenodd; clip-rule:evenodd"
viewBox="0 0 604.69 546"
 xmlns:xlink="http://www.w3.org/1999/xlink">
 <defs>
  <style type="text/css">
   <![CDATA[
    .fil0 {fill:white}
   ]]>
  </style>
 </defs>
 <g id="Layer_x0020_1">
  <metadata id="CorelCorpID_0Corel-Layer"/>
  <path class="fil0" d="M604.69 165.39c0,-26.46 -21.53,-47.99 -47.99,-47.99l-59.63 0 0 -30.27c0,-4.89 -3.96,-8.86 -8.86,-8.86l-20.49 0 0 -49.84c0,-4.89 -3.96,-8.86 -8.86,-8.86l-69.41 0 0 -10.71c0,-4.89 -3.96,-8.86 -8.86,-8.86l-156.52 0c-4.89,0 -8.86,3.97 -8.86,8.86l0 10.71 -69.4 0c-4.9,0 -8.86,3.97 -8.86,8.86l0 49.84 -20.49 0c-4.89,0 -8.86,3.97 -8.86,8.86l0 30.27 -59.62 0c-26.46,0 -47.99,21.53 -47.99,47.99l0 117.4c0,4.89 3.97,8.86 8.86,8.86l10.71 0 0 206.37c0,26.46 21.53,47.99 47.99,47.99l469.58 0c26.46,0 47.99,-21.53 47.99,-47.99l0 -206.37 10.71 0c2.35,0 4.6,-0.93 6.26,-2.59 1.66,-1.66 2.59,-3.91 2.59,-6.26l0 -117.4zm-125.33 -69.41l0 21.42 -40.98 0 0 -21.42 40.98 0zm-246.43 -78.26l138.81 0 0 21.42 -138.81 0 0 -21.42zm-107.61 78.26l40.99 0 0 21.42 -40.99 0 0 -21.42zm442.09 402.03c0,16.69 -13.58,30.27 -30.28,30.27l-469.58 0c-16.69,0 -30.28,-13.58 -30.28,-30.27l0 -206.37 60.55 0 0 21.42 -10.71 0c-4.89,0 -8.86,3.97 -8.86,8.86l0 39.13c0,4.89 3.97,8.86 8.86,8.86l10.71 0 0 30.27c0,3.36 1.9,6.42 4.9,7.92l39.13 19.57c1.24,0.63 2.6,0.94 3.96,0.94 1.36,0 2.71,-0.31 3.96,-0.94l39.13 -19.57c3,-1.5 4.9,-4.57 4.9,-7.92l0 -30.27 10.71 0c4.89,0 8.86,-3.97 8.86,-8.86l0 -39.13c0,-4.89 -3.97,-8.86 -8.86,-8.86l-10.71 0 0 -21.42 60.55 0 0 40.06c0,4.89 3.97,8.86 8.86,8.86l78.27 0c4.89,0 8.86,-3.97 8.86,-8.86l0 -40.06 60.54 0 0 21.42 -10.71 0c-4.89,0 -8.86,3.97 -8.86,8.86l0 39.13c0,4.89 3.96,8.86 8.86,8.86l10.71 0 0 30.27c0,3.36 1.9,6.42 4.9,7.92l39.13 19.57c1.25,0.63 2.61,0.94 3.96,0.94 1.36,0 2.72,-0.31 3.97,-0.94l39.13 -19.57c3,-1.5 4.89,-4.57 4.89,-7.92l0 -30.27 10.71 0c4.89,0 8.86,-3.97 8.86,-8.86l0 -39.13c0,-4.89 -3.96,-8.86 -8.86,-8.86l-10.71 0 0 -21.42 60.55 0 0 206.37zm-451.87 -215.2c0,-0.01 0,-0.02 0,-0.03 0,-0.01 0,-0.02 0,-0.02l0 -30.25 60.55 0 0 60.54 -60.55 0 0 -30.25zm-19.56 -48.01l0 -21.42 99.68 0 0 21.42 -99.68 0zm99.68 95.97l0 21.42 -99.68 0 0 -21.42 99.68 0zm-19.57 39.13l0 24.8 -30.27 15.15 -30.28 -15.15 0 -24.8 60.55 0zm117.4 -78.27l0 10.71c0,4.89 3.96,8.86 8.86,8.86 4.89,0 8.86,-3.96 8.86,-8.86l0 -10.71 21.42 0 0 31.2 -60.54 0 0 -31.2 21.42 0zm-21.42 -17.71l0 -11.62 60.54 0 0 11.62 -60.54 0zm156.52 8.88c0,-0.01 0,-0.02 0,-0.03 0,-0.01 0,-0.02 0,-0.02l0 -30.25 60.55 0 0 60.54 -60.55 0 0 -30.25zm-19.57 -48.01l0 -21.42 99.68 0 0 21.42 -99.68 0zm99.68 95.97l0 21.42 -99.68 0 0 -21.42 99.68 0zm-19.57 39.13l0 24.8 -30.28 15.15 -30.27 -15.15 0 -24.8 60.55 0zm87.16 -95.98c-0.01,0 -0.02,0 -0.04,0 -0.01,0 -0.02,0 -0.03,0l-69.38 0 0 -21.41 10.71 0c4.89,0 8.86,-3.97 8.86,-8.86l0 -30.27 0.93 0c4.89,0 8.86,-3.97 8.86,-8.86 0,-4.9 -3.96,-8.86 -8.86,-8.86l-136.96 0c-4.89,0 -8.86,3.96 -8.86,8.86 0,4.89 3.96,8.86 8.86,8.86l0.92 0 0 30.27c0,4.89 3.96,8.86 8.86,8.86l10.71 0 0 21.41 -60.54 0 0 -20.49c0,-4.89 -3.97,-8.86 -8.86,-8.86l-78.27 0c-4.89,0 -8.86,3.96 -8.86,8.86l0 20.49 -60.55 0 0 -21.41 10.71 0c4.89,0 8.86,-3.97 8.86,-8.86l0 -30.27 0.93 0c4.89,0 8.86,-3.97 8.86,-8.86 0,-4.9 -3.97,-8.86 -8.86,-8.86l-136.97 0c-4.89,0 -8.86,3.96 -8.86,8.86 0,4.89 3.97,8.86 8.86,8.86l0.93 0 0 30.27c0,4.89 3.96,8.86 8.86,8.86l10.71 0 0 21.41 -80.12 0 0 -108.54c0,-16.69 13.58,-30.27 30.28,-30.27l166.31 0c4.89,0 8.86,-3.97 8.86,-8.86 0,-4.89 -3.97,-8.86 -8.86,-8.86l-30.27 0 0 -30.27c0,-4.89 -3.97,-8.86 -8.86,-8.86l-20.49 0 0 -40.98 60.54 0 0 10.71c0,4.9 3.97,8.86 8.86,8.86l156.52 0c4.89,0 8.86,-3.96 8.86,-8.86l0 -10.71 60.55 0 0 40.98 -20.49 0c-4.9,0 -8.86,3.97 -8.86,8.86l0 30.27 -170.88 0c-4.89,0 -8.86,3.97 -8.86,8.86 0,4.89 3.96,8.86 8.86,8.86l306.91 0c16.69,0 30.28,13.58 30.28,30.27l0 108.54 -10.67 0z"/>
 </g>
</svg>
